<?xml version="1.0" encoding="iso-8859-1"?>
<!-- Generator: Adobe Illustrator 21.0.1, SVG Export Plug-In . SVG Version: 6.00 Build 0)  -->
<svg version="1.1" id="&#x421;&#x43B;&#x43E;&#x439;_1"
	 xmlns="http://www.w3.org/2000/svg" xmlns:xlink="http://www.w3.org/1999/xlink" x="0px" y="0px" viewBox="0 0 120.609 50.852"
	 style="enable-background:new 0 0 120.609 50.852;" xml:space="preserve">
<g>
	<path style="fill:#FFFFFF;" d="M59.718,15.143h2.671c1.968,0,3.51,0.512,4.627,1.535c1.116,1.023,1.675,2.316,1.675,3.877
		c0,1.562-0.559,2.855-1.675,3.877c-1.117,1.023-2.659,1.534-4.627,1.534h-0.633v3.819c0,0.562-0.199,1.043-0.597,1.441
		c-0.398,0.398-0.879,0.598-1.441,0.598c-0.562,0-1.043-0.199-1.441-0.598c-0.398-0.398-0.597-0.878-0.597-1.441V17.181
		c0-0.562,0.199-1.043,0.597-1.441S59.155,15.143,59.718,15.143z M61.756,18.68v3.748h0.656c1.468,0,2.202-0.625,2.202-1.874
		c0-1.249-0.734-1.874-2.202-1.874H61.756z"/>
	<path style="fill:#FFFFFF;" d="M73.361,22.007c0.328-0.5,0.753-0.91,1.277-1.23c0.523-0.32,1.081-0.48,1.675-0.48
		c0.547,0,0.984,0.16,1.312,0.48c0.328,0.32,0.492,0.715,0.492,1.183c0,0.453-0.164,0.843-0.492,1.171
		c-0.328,0.328-0.719,0.492-1.171,0.492c-0.125,0-0.281-0.024-0.469-0.07c-0.172-0.047-0.336-0.07-0.492-0.07
		c-0.672,0-1.195,0.227-1.57,0.679c-0.375,0.453-0.562,1.086-0.562,1.898v3.912c0,0.515-0.18,0.953-0.539,1.312
		c-0.359,0.359-0.797,0.539-1.312,0.539c-0.515,0-0.953-0.18-1.312-0.539c-0.359-0.359-0.539-0.797-0.539-1.312v-7.825
		c0-0.515,0.179-0.953,0.539-1.312c0.359-0.359,0.796-0.539,1.312-0.539c0.5,0,0.925,0.164,1.277,0.492
		C73.139,21.117,73.33,21.523,73.361,22.007z"/>
	<path style="fill:#FFFFFF;" d="M87.505,21.984c1.187,1.109,1.78,2.468,1.78,4.077c0,1.609-0.59,2.972-1.769,4.088
		c-1.179,1.117-2.62,1.675-4.322,1.675s-3.143-0.558-4.322-1.675c-1.18-1.116-1.769-2.479-1.769-4.088
		c0-1.609,0.589-2.971,1.769-4.088c1.179-1.117,2.62-1.675,4.322-1.675S86.334,20.859,87.505,21.984z M84.858,27.77
		c0.484-0.453,0.726-1.023,0.726-1.71s-0.242-1.257-0.726-1.71c-0.484-0.453-1.039-0.679-1.663-0.679
		c-0.625,0-1.179,0.226-1.663,0.679c-0.484,0.453-0.726,1.023-0.726,1.71s0.242,1.257,0.726,1.71
		c0.484,0.453,1.038,0.679,1.663,0.679C83.819,28.45,84.373,28.223,84.858,27.77z"/>
	<path style="fill:#FFFFFF;" d="M104.335,29.973v-4.756c0-0.5-0.156-0.914-0.469-1.242c-0.313-0.328-0.703-0.492-1.171-0.492
		s-0.859,0.164-1.171,0.492c-0.313,0.328-0.469,0.742-0.469,1.242v4.756c0,0.515-0.18,0.953-0.539,1.312
		c-0.359,0.359-0.797,0.539-1.312,0.539c-0.515,0-0.953-0.18-1.312-0.539c-0.359-0.359-0.539-0.797-0.539-1.312v-4.756
		c0-0.5-0.156-0.914-0.469-1.242c-0.313-0.328-0.703-0.492-1.171-0.492c-0.469,0-0.859,0.164-1.171,0.492
		c-0.313,0.328-0.469,0.742-0.469,1.242v4.756c0,0.515-0.18,0.953-0.539,1.312c-0.359,0.359-0.797,0.539-1.312,0.539
		c-0.515,0-0.953-0.18-1.312-0.539c-0.359-0.359-0.539-0.797-0.539-1.312v-7.825c0-0.515,0.179-0.953,0.539-1.312
		c0.359-0.359,0.797-0.539,1.312-0.539c0.5,0,0.925,0.168,1.277,0.504c0.352,0.336,0.543,0.738,0.574,1.206
		c0.343-0.5,0.804-0.91,1.382-1.23c0.578-0.32,1.179-0.48,1.804-0.48c1.374,0,2.437,0.578,3.186,1.734
		c0.984-1.156,2.233-1.734,3.748-1.734c1.125,0,2.046,0.367,2.765,1.101c0.718,0.734,1.078,1.718,1.078,2.952v5.623
		c0,0.515-0.18,0.953-0.539,1.312c-0.359,0.359-0.797,0.539-1.312,0.539c-0.515,0-0.953-0.18-1.312-0.539
		C104.514,30.925,104.335,30.488,104.335,29.973z"/>
	<path style="fill:#FFFFFF;" d="M118.829,21.967c1.187,1.109,1.78,2.468,1.78,4.077c0,1.609-0.59,2.972-1.769,4.088
		c-1.179,1.117-2.62,1.675-4.323,1.675s-3.143-0.558-4.322-1.675c-1.18-1.116-1.769-2.479-1.769-4.088
		c0-1.609,0.589-2.971,1.769-4.088c1.179-1.117,2.62-1.675,4.322-1.675S117.657,20.842,118.829,21.967z M116.181,27.753
		c0.484-0.453,0.726-1.023,0.726-1.71s-0.242-1.257-0.726-1.71c-0.484-0.453-1.039-0.679-1.663-0.679
		c-0.625,0-1.179,0.226-1.663,0.679c-0.484,0.453-0.726,1.023-0.726,1.71s0.242,1.257,0.726,1.71
		c0.484,0.453,1.038,0.679,1.663,0.679C115.143,28.433,115.697,28.206,116.181,27.753z"/>
	<g>
		<path style="fill:#FFFFFF;" d="M60.334,38.857c-0.362,0-0.704-0.063-1.025-0.188c-0.321-0.125-0.603-0.311-0.845-0.556
			c-0.242-0.245-0.434-0.55-0.574-0.915c-0.14-0.365-0.21-0.787-0.21-1.266c0-0.473,0.073-0.895,0.219-1.266
			c0.146-0.371,0.342-0.685,0.587-0.942c0.245-0.257,0.531-0.452,0.859-0.587c0.327-0.134,0.671-0.201,1.034-0.201
			c0.368,0,0.698,0.074,0.99,0.223c0.292,0.149,0.534,0.323,0.727,0.521l-0.683,0.823c-0.146-0.134-0.299-0.244-0.46-0.329
			c-0.161-0.085-0.343-0.127-0.548-0.127c-0.193,0-0.375,0.042-0.547,0.127c-0.172,0.085-0.321,0.206-0.447,0.364
			c-0.126,0.158-0.225,0.351-0.298,0.578c-0.073,0.228-0.11,0.485-0.11,0.771c0,0.59,0.125,1.047,0.377,1.371
			c0.251,0.324,0.587,0.486,1.007,0.486c0.234,0,0.442-0.051,0.626-0.153c0.184-0.102,0.346-0.229,0.486-0.381l0.683,0.806
			C61.703,38.577,61.087,38.857,60.334,38.857z"/>
		<path style="fill:#FFFFFF;" d="M62.944,38.752v-4.345h1.051l0.088,0.762h0.035c0.158-0.298,0.347-0.517,0.569-0.657
			c0.222-0.14,0.444-0.21,0.666-0.21c0.123,0,0.223,0.007,0.302,0.022c0.079,0.015,0.15,0.037,0.215,0.066l-0.21,1.112
			c-0.082-0.023-0.158-0.041-0.228-0.052c-0.07-0.012-0.152-0.018-0.245-0.018c-0.164,0-0.334,0.058-0.512,0.175
			c-0.178,0.117-0.326,0.324-0.442,0.622v2.523H62.944z"/>
		<path style="fill:#FFFFFF;" d="M68.287,38.857c-0.31,0-0.599-0.051-0.867-0.153c-0.269-0.102-0.502-0.251-0.701-0.447
			c-0.199-0.195-0.353-0.433-0.464-0.714c-0.111-0.28-0.166-0.602-0.166-0.964c0-0.351,0.058-0.667,0.175-0.95
			c0.117-0.283,0.27-0.523,0.46-0.718c0.19-0.196,0.407-0.346,0.653-0.451c0.245-0.105,0.499-0.157,0.762-0.157
			c0.31,0,0.58,0.052,0.81,0.157c0.231,0.105,0.423,0.251,0.578,0.438c0.155,0.187,0.27,0.408,0.346,0.661
			c0.076,0.254,0.114,0.53,0.114,0.828c0,0.117-0.006,0.228-0.018,0.333c-0.012,0.105-0.023,0.184-0.035,0.237h-2.602
			c0.058,0.315,0.188,0.547,0.39,0.696c0.201,0.149,0.448,0.223,0.74,0.223c0.309,0,0.622-0.096,0.937-0.289l0.429,0.78
			c-0.222,0.152-0.469,0.271-0.74,0.359C68.817,38.814,68.55,38.857,68.287,38.857z M67.324,36.107h1.568
			c0-0.245-0.056-0.444-0.166-0.596c-0.111-0.152-0.298-0.228-0.561-0.228c-0.204,0-0.384,0.067-0.539,0.201
			C67.471,35.62,67.371,35.827,67.324,36.107z"/>
		<path style="fill:#FFFFFF;" d="M71.879,38.857c-0.199,0-0.378-0.034-0.539-0.101c-0.161-0.067-0.296-0.161-0.407-0.28
			c-0.111-0.119-0.197-0.258-0.258-0.416c-0.061-0.158-0.092-0.33-0.092-0.517c0-0.456,0.193-0.812,0.578-1.069
			s1.007-0.429,1.866-0.517c-0.012-0.193-0.069-0.346-0.171-0.46c-0.102-0.114-0.273-0.171-0.512-0.171
			c-0.187,0-0.372,0.035-0.556,0.105c-0.184,0.07-0.381,0.166-0.591,0.289l-0.464-0.85c0.28-0.169,0.574-0.307,0.88-0.412
			c0.307-0.105,0.632-0.157,0.977-0.157c0.561,0,0.988,0.159,1.283,0.477c0.295,0.319,0.442,0.813,0.442,1.485v2.488h-1.051
			l-0.088-0.447h-0.035c-0.187,0.163-0.383,0.296-0.587,0.399C72.349,38.806,72.124,38.857,71.879,38.857z M72.317,37.859
			c0.146,0,0.272-0.032,0.376-0.096c0.105-0.064,0.216-0.155,0.333-0.272v-0.762c-0.456,0.064-0.771,0.158-0.946,0.28
			c-0.175,0.123-0.263,0.269-0.263,0.438c0,0.14,0.045,0.244,0.136,0.311C72.044,37.825,72.165,37.859,72.317,37.859z"/>
		<path style="fill:#FFFFFF;" d="M76.916,38.857c-0.269,0-0.498-0.041-0.688-0.123c-0.19-0.082-0.345-0.195-0.464-0.342
			c-0.12-0.146-0.207-0.323-0.263-0.53c-0.056-0.207-0.083-0.437-0.083-0.688v-1.761h-0.596V34.46l0.666-0.052l0.149-1.156h1.069
			v1.156h1.042v1.007h-1.042v1.743c0,0.245,0.051,0.422,0.153,0.53c0.102,0.108,0.238,0.162,0.407,0.162
			c0.07,0,0.142-0.009,0.215-0.026c0.073-0.018,0.138-0.038,0.197-0.061L77.88,38.7c-0.117,0.035-0.254,0.07-0.412,0.105
			C77.31,38.84,77.126,38.857,76.916,38.857z"/>
		<path style="fill:#FFFFFF;" d="M79.237,33.768c-0.216,0-0.394-0.063-0.534-0.188c-0.14-0.125-0.21-0.288-0.21-0.486
			c0-0.198,0.07-0.359,0.21-0.482c0.14-0.123,0.318-0.184,0.534-0.184c0.222,0,0.401,0.061,0.539,0.184
			c0.137,0.123,0.206,0.283,0.206,0.482c0,0.199-0.069,0.361-0.206,0.486C79.639,33.705,79.459,33.768,79.237,33.768z
			 M78.598,38.752v-4.345h1.288v4.345H78.598z"/>
		<path style="fill:#FFFFFF;" d="M82.014,38.752l-1.463-4.345h1.297l0.561,2.05c0.058,0.216,0.115,0.437,0.171,0.661
			c0.056,0.225,0.113,0.451,0.171,0.679h0.035c0.053-0.228,0.107-0.454,0.162-0.679c0.056-0.225,0.113-0.445,0.171-0.661l0.569-2.05
			h1.235l-1.419,4.345H82.014z"/>
		<path style="fill:#FFFFFF;" d="M87.471,38.857c-0.31,0-0.599-0.051-0.867-0.153c-0.269-0.102-0.502-0.251-0.701-0.447
			c-0.199-0.195-0.353-0.433-0.464-0.714c-0.111-0.28-0.166-0.602-0.166-0.964c0-0.351,0.058-0.667,0.175-0.95
			c0.117-0.283,0.27-0.523,0.46-0.718s0.408-0.346,0.653-0.451c0.245-0.105,0.499-0.157,0.762-0.157c0.309,0,0.579,0.052,0.81,0.157
			c0.231,0.105,0.423,0.251,0.578,0.438c0.155,0.187,0.27,0.408,0.346,0.661c0.076,0.254,0.114,0.53,0.114,0.828
			c0,0.117-0.006,0.228-0.018,0.333c-0.012,0.105-0.024,0.184-0.035,0.237h-2.602c0.058,0.315,0.188,0.547,0.39,0.696
			c0.201,0.149,0.448,0.223,0.74,0.223c0.309,0,0.622-0.096,0.937-0.289l0.429,0.78c-0.222,0.152-0.469,0.271-0.74,0.359
			C88.001,38.814,87.734,38.857,87.471,38.857z M86.508,36.107h1.568c0-0.245-0.056-0.444-0.166-0.596
			c-0.111-0.152-0.298-0.228-0.561-0.228c-0.205,0-0.384,0.067-0.539,0.201C86.655,35.62,86.554,35.827,86.508,36.107z"/>
		<path style="fill:#FFFFFF;" d="M91.615,38.857c-0.309,0-0.583-0.044-0.819-0.131c-0.237-0.088-0.435-0.206-0.596-0.355
			s-0.282-0.321-0.364-0.517c-0.082-0.195-0.123-0.404-0.123-0.626c0-0.198,0.028-0.378,0.083-0.539
			c0.056-0.16,0.132-0.305,0.228-0.433c0.096-0.128,0.207-0.245,0.333-0.351c0.125-0.105,0.258-0.201,0.399-0.289
			c-0.111-0.204-0.197-0.407-0.258-0.609c-0.061-0.201-0.092-0.393-0.092-0.574c0-0.204,0.037-0.397,0.11-0.578
			c0.073-0.181,0.176-0.34,0.311-0.477c0.134-0.137,0.296-0.245,0.486-0.324c0.19-0.079,0.404-0.118,0.644-0.118
			c0.432,0,0.774,0.117,1.025,0.35c0.251,0.234,0.377,0.549,0.377,0.946c0,0.187-0.034,0.358-0.101,0.513
			c-0.067,0.155-0.158,0.298-0.271,0.429c-0.114,0.132-0.243,0.253-0.386,0.364c-0.143,0.111-0.288,0.216-0.433,0.315
			c0.163,0.187,0.343,0.369,0.539,0.547c0.195,0.178,0.399,0.343,0.609,0.495c0.146-0.187,0.274-0.394,0.385-0.622
			c0.111-0.228,0.201-0.476,0.272-0.745h1.174c-0.105,0.35-0.235,0.685-0.39,1.003c-0.155,0.318-0.343,0.626-0.565,0.924
			c0.181,0.093,0.355,0.171,0.521,0.232c0.166,0.061,0.322,0.104,0.469,0.127l-0.307,1.042c-0.24-0.047-0.482-0.119-0.727-0.219
			c-0.245-0.099-0.49-0.219-0.736-0.359c-0.245,0.181-0.515,0.323-0.81,0.425C92.306,38.806,91.977,38.857,91.615,38.857z
			 M91.781,37.876c0.239,0,0.479-0.076,0.718-0.228c-0.222-0.181-0.432-0.371-0.631-0.569s-0.382-0.403-0.552-0.613
			c-0.117,0.1-0.21,0.205-0.28,0.315c-0.07,0.111-0.105,0.234-0.105,0.368c0,0.216,0.077,0.391,0.232,0.526
			C91.318,37.809,91.524,37.876,91.781,37.876z M91.466,34.425c0,0.105,0.016,0.216,0.048,0.333
			c0.032,0.117,0.077,0.234,0.136,0.351c0.204-0.123,0.377-0.251,0.517-0.385c0.14-0.134,0.21-0.298,0.21-0.491
			c0-0.134-0.032-0.242-0.096-0.324c-0.064-0.082-0.164-0.123-0.298-0.123c-0.146,0-0.269,0.057-0.368,0.171
			C91.516,34.07,91.466,34.227,91.466,34.425z"/>
		<path style="fill:#FFFFFF;" d="M96.012,38.752v-5.711h1.612c0.438,0,0.832,0.056,1.183,0.166c0.35,0.111,0.651,0.282,0.902,0.513
			c0.251,0.231,0.444,0.524,0.578,0.88c0.134,0.356,0.201,0.78,0.201,1.27c0,0.49-0.067,0.917-0.201,1.279
			c-0.134,0.362-0.324,0.661-0.569,0.898s-0.539,0.413-0.88,0.53c-0.342,0.117-0.723,0.175-1.143,0.175H96.012z M97.3,37.71h0.245
			c0.245,0,0.467-0.032,0.666-0.096c0.198-0.064,0.368-0.168,0.508-0.311c0.14-0.143,0.25-0.331,0.329-0.565
			c0.079-0.233,0.118-0.523,0.118-0.867c0-0.339-0.039-0.623-0.118-0.854c-0.079-0.231-0.188-0.414-0.329-0.552
			c-0.14-0.137-0.31-0.235-0.508-0.294c-0.199-0.058-0.42-0.088-0.666-0.088H97.3V37.71z"/>
		<path style="fill:#FFFFFF;" d="M102.109,33.768c-0.216,0-0.394-0.063-0.534-0.188c-0.14-0.125-0.21-0.288-0.21-0.486
			c0-0.198,0.07-0.359,0.21-0.482c0.14-0.123,0.318-0.184,0.534-0.184c0.222,0,0.401,0.061,0.539,0.184
			c0.137,0.123,0.206,0.283,0.206,0.482c0,0.199-0.069,0.361-0.206,0.486C102.51,33.705,102.331,33.768,102.109,33.768z
			 M101.469,38.752v-4.345h1.288v4.345H101.469z"/>
		<path style="fill:#FFFFFF;" d="M105.437,40.601c-0.257,0-0.495-0.022-0.714-0.066c-0.219-0.044-0.412-0.11-0.578-0.197
			c-0.166-0.088-0.296-0.201-0.39-0.342c-0.094-0.14-0.14-0.307-0.14-0.499c0-0.35,0.207-0.642,0.622-0.876v-0.035
			c-0.117-0.076-0.213-0.172-0.289-0.289c-0.076-0.117-0.114-0.266-0.114-0.447c0-0.158,0.047-0.308,0.14-0.451
			c0.093-0.143,0.21-0.264,0.35-0.364V37c-0.152-0.105-0.288-0.255-0.407-0.451c-0.12-0.195-0.18-0.422-0.18-0.679
			c0-0.263,0.05-0.492,0.149-0.688c0.099-0.195,0.232-0.359,0.399-0.49c0.166-0.132,0.358-0.229,0.574-0.294
			c0.216-0.064,0.441-0.096,0.674-0.096c0.257,0,0.482,0.035,0.675,0.105h1.586v0.937h-0.692c0.041,0.064,0.075,0.146,0.101,0.245
			c0.026,0.099,0.039,0.207,0.039,0.324c0,0.251-0.044,0.469-0.131,0.652c-0.088,0.184-0.209,0.336-0.364,0.456
			c-0.155,0.12-0.336,0.209-0.543,0.267c-0.207,0.058-0.431,0.088-0.67,0.088c-0.169,0-0.345-0.029-0.526-0.088
			c-0.058,0.047-0.099,0.094-0.123,0.14c-0.023,0.047-0.035,0.108-0.035,0.184c0,0.111,0.048,0.193,0.144,0.245
			c0.096,0.052,0.267,0.079,0.513,0.079h0.701c0.537,0,0.947,0.086,1.231,0.258c0.283,0.172,0.425,0.454,0.425,0.845
			c0,0.228-0.057,0.437-0.171,0.627c-0.114,0.19-0.276,0.353-0.486,0.49c-0.21,0.137-0.464,0.245-0.762,0.324
			C106.147,40.561,105.811,40.601,105.437,40.601z M105.639,39.795c0.292,0,0.532-0.051,0.718-0.153s0.28-0.229,0.28-0.381
			c0-0.134-0.057-0.225-0.171-0.271c-0.114-0.047-0.279-0.07-0.495-0.07h-0.447c-0.152,0-0.275-0.004-0.368-0.013
			c-0.094-0.009-0.175-0.022-0.245-0.039c-0.158,0.14-0.236,0.283-0.236,0.429c0,0.163,0.088,0.288,0.263,0.372
			C105.113,39.752,105.347,39.795,105.639,39.795z M105.534,36.598c0.169,0,0.311-0.06,0.425-0.18
			c0.114-0.12,0.171-0.302,0.171-0.547c0-0.228-0.057-0.402-0.171-0.521c-0.114-0.12-0.256-0.18-0.425-0.18
			c-0.169,0-0.311,0.058-0.425,0.175c-0.114,0.117-0.171,0.292-0.171,0.526c0,0.245,0.057,0.428,0.171,0.547
			C105.223,36.538,105.364,36.598,105.534,36.598z"/>
		<path style="fill:#FFFFFF;" d="M109.204,33.768c-0.216,0-0.394-0.063-0.534-0.188c-0.14-0.125-0.21-0.288-0.21-0.486
			c0-0.198,0.07-0.359,0.21-0.482c0.14-0.123,0.318-0.184,0.534-0.184c0.222,0,0.401,0.061,0.539,0.184
			c0.137,0.123,0.206,0.283,0.206,0.482c0,0.199-0.069,0.361-0.206,0.486C109.606,33.705,109.426,33.768,109.204,33.768z
			 M108.565,38.752v-4.345h1.288v4.345H108.565z"/>
		<path style="fill:#FFFFFF;" d="M112.656,38.857c-0.269,0-0.498-0.041-0.688-0.123c-0.19-0.082-0.345-0.195-0.464-0.342
			c-0.12-0.146-0.207-0.323-0.263-0.53c-0.056-0.207-0.083-0.437-0.083-0.688v-1.761h-0.596V34.46l0.666-0.052l0.149-1.156h1.069
			v1.156h1.042v1.007h-1.042v1.743c0,0.245,0.051,0.422,0.153,0.53c0.102,0.108,0.238,0.162,0.407,0.162
			c0.07,0,0.142-0.009,0.215-0.026c0.073-0.018,0.138-0.038,0.197-0.061l0.202,0.937c-0.117,0.035-0.254,0.07-0.412,0.105
			C113.05,38.84,112.866,38.857,112.656,38.857z"/>
		<path style="fill:#FFFFFF;" d="M115.257,38.857c-0.199,0-0.378-0.034-0.539-0.101s-0.296-0.161-0.407-0.28
			c-0.111-0.119-0.197-0.258-0.258-0.416c-0.061-0.158-0.092-0.33-0.092-0.517c0-0.456,0.193-0.812,0.578-1.069
			s1.007-0.429,1.866-0.517c-0.012-0.193-0.069-0.346-0.171-0.46c-0.102-0.114-0.273-0.171-0.512-0.171
			c-0.187,0-0.372,0.035-0.556,0.105c-0.184,0.07-0.381,0.166-0.591,0.289l-0.464-0.85c0.28-0.169,0.574-0.307,0.88-0.412
			c0.307-0.105,0.632-0.157,0.977-0.157c0.561,0,0.988,0.159,1.283,0.477c0.295,0.319,0.442,0.813,0.442,1.485v2.488h-1.051
			l-0.088-0.447h-0.035c-0.187,0.163-0.383,0.296-0.587,0.399C115.727,38.806,115.503,38.857,115.257,38.857z M115.695,37.859
			c0.146,0,0.271-0.032,0.376-0.096c0.105-0.064,0.216-0.155,0.333-0.272v-0.762c-0.456,0.064-0.771,0.158-0.946,0.28
			c-0.175,0.123-0.263,0.269-0.263,0.438c0,0.14,0.045,0.244,0.136,0.311C115.422,37.825,115.543,37.859,115.695,37.859z"/>
		<path style="fill:#FFFFFF;" d="M119.961,38.857c-0.222,0-0.409-0.035-0.561-0.105c-0.152-0.07-0.273-0.168-0.364-0.294
			c-0.091-0.125-0.156-0.277-0.197-0.455s-0.061-0.378-0.061-0.6v-4.792h1.288v4.844c0,0.134,0.025,0.228,0.075,0.28
			c0.05,0.053,0.101,0.079,0.153,0.079c0.029,0,0.054,0,0.074,0c0.02,0,0.048-0.006,0.083-0.018l0.157,0.955
			c-0.07,0.029-0.159,0.054-0.267,0.075C120.234,38.847,120.107,38.857,119.961,38.857z"/>
	</g>
	<g>
		<path style="fill:#FFFFFF;" d="M6.892,31.511l1.592-1.358c-0.968-1.172-1.478-2.568-1.478-4.213c0-1.815,0.589-3.342,1.767-4.581
			c1.178-1.239,2.622-1.858,4.332-1.858c0.872,0,1.671,0.183,2.395,0.55c0.724,0.367,1.278,0.82,1.662,1.361
			c0.035-0.541,0.249-0.995,0.641-1.361c0.393-0.366,0.868-0.55,1.427-0.55c0.477,0,0.891,0.146,1.249,0.422l3.456-2.948
			c0.081-1.421,0.492-2.571,1.275-3.416c0.872-0.942,2.077-1.414,3.612-1.414c0.248,0,0.479,0.029,0.713,0.053l2.284-1.948
			c-0.15-0.195-0.258-0.421-0.313-0.669L1.556,11.554c-0.685,2.419-1.071,4.901-1.288,7.411c-0.158,1.82-0.248,3.649-0.266,5.476
			L6.892,31.511z"/>
		<path style="fill:#FFFFFF;" d="M18.067,42.98c0.288-0.222,0.648-0.355,1.04-0.355c0.187,0,0.367,0.031,0.535,0.087l4.526-11.385
			c-0.172-0.302-0.266-0.638-0.266-1.014v-7.198h-0.576c-0.454,0-0.842-0.161-1.165-0.484c-0.323-0.323-0.484-0.711-0.484-1.165
			c0-0.454,0.161-0.842,0.484-1.165c0.323-0.323,0.711-0.484,1.165-0.484h0.576v-2.356c0-0.03,0.006-0.055,0.006-0.084l-3.206,2.734
			c0.397,0.401,0.597,0.887,0.597,1.46v8.743c0,0.576-0.201,1.065-0.602,1.466c-0.402,0.401-0.89,0.602-1.466,0.602
			c-0.559,0-1.034-0.183-1.427-0.55c-0.393-0.366-0.606-0.82-0.641-1.361c-0.384,0.541-0.938,0.995-1.662,1.361
			c-0.724,0.367-1.523,0.55-2.395,0.55c-1.71,0-3.154-0.619-4.332-1.859c-0.043-0.045-0.071-0.097-0.112-0.143l-1.569,1.338
			L18.067,42.98z"/>
		<path style="fill:#FFFFFF;" d="M31.47,9.296c-0.001-0.028-0.004-0.056-0.004-0.085c0-0.12,0.013-0.237,0.036-0.349L9.557,0.948
			C8.35,1.446,7.239,2.144,6.238,3.071C4.309,4.858,3.09,7.095,2.198,9.532c-0.209,0.571-0.379,1.15-0.549,1.729L31.47,9.296z"/>
		<path style="fill:#FFFFFF;" d="M9.716,0.88c0.061-0.024,0.121-0.048,0.182-0.071C9.837,0.832,9.776,0.856,9.716,0.88z"/>
		<path style="fill:#FFFFFF;" d="M31.585,8.587c0.001-0.003,0.002-0.005,0.003-0.008L15.697,0.033L15.7,0.028
			c-1.123-0.063-2.255-0.025-3.399,0.154c-0.816,0.128-1.596,0.331-2.342,0.606L31.585,8.587z"/>
		<path style="fill:#FFFFFF;" d="M18.312,45.842c-0.494-0.261-0.845-0.757-0.904-1.339l-12.815,1.39
			c0.677,0.926,1.45,1.774,2.375,2.497c0.463,0.362,0.946,0.667,1.441,0.94c0.715,0.395,1.461,0.713,2.254,0.944
			c0.671,0.195,1.373,0.336,2.109,0.43c0.736,0.094,1.506,0.141,2.315,0.148c0.291-0.026,0.716-0.053,1.191-0.094L18.312,45.842z"/>
		<path style="fill:#FFFFFF;" d="M49.517,24.211c-0.112-1.002-0.351-1.961-0.695-2.883c-0.344-0.922-0.792-1.806-1.32-2.659
			c-1.546-2.499-3.587-4.551-5.826-6.42c-0.648-0.541-1.313-1.058-1.987-1.561c-0.299-0.224-0.604-0.437-0.907-0.654
			c-0.264-0.189-0.523-0.385-0.79-0.569c-0.006,0.001-0.011,0.002-0.017,0.002c-1.766-1.218-3.59-2.349-5.463-3.407
			c-3.724-2.105-7.553-3.977-11.694-5.127c-1.464-0.406-2.938-0.714-4.427-0.852l15.326,8.242c0.3-0.491,0.839-0.82,1.457-0.82
			c0.943,0,1.708,0.765,1.708,1.708s-0.764,1.708-1.708,1.708c-0.192,0-0.376-0.033-0.549-0.092l-0.833,2.096
			c0.223,0.136,0.442,0.28,0.644,0.452c0.453,0.402,0.681,0.873,0.681,1.414c0,0.489-0.162,0.899-0.484,1.23
			c-0.323,0.332-0.729,0.497-1.217,0.497c-0.32,0-0.633-0.105-0.942-0.276l-1.421,3.574h0.87c0.453,0,0.842,0.162,1.165,0.484
			c0.323,0.323,0.484,0.711,0.484,1.165c0,0.454-0.162,0.842-0.484,1.165c-0.323,0.323-0.711,0.484-1.165,0.484h-1.885v7.198
			c0,0.576-0.201,1.065-0.602,1.466c-0.402,0.401-0.89,0.602-1.466,0.602c-0.576,0-1.065-0.201-1.466-0.602
			c-0.053-0.053-0.094-0.112-0.14-0.169l-4.458,11.214c0.541,0.287,0.909,0.854,0.909,1.509c0,0.943-0.765,1.708-1.708,1.708
			c-0.186,0-0.364-0.031-0.532-0.086l-1.974,4.775c0.286-0.028,0.58-0.059,0.878-0.103c2.372-0.346,4.655-1.03,6.883-1.903
			c4.482-1.757,8.666-4.08,12.68-6.716c2.9-1.904,5.631-4.021,7.982-6.592c1.506-1.647,2.787-3.445,3.641-5.523
			c0.562-1.368,0.883-2.775,0.916-4.222C49.593,25.188,49.572,24.702,49.517,24.211z M40.656,22.629
			c-0.323,0.323-0.711,0.484-1.165,0.484H38.13v7.198c0,0.576-0.201,1.065-0.602,1.466c-0.402,0.401-0.89,0.602-1.466,0.602
			c-0.576,0-1.065-0.201-1.466-0.602c-0.402-0.401-0.602-0.89-0.602-1.466v-7.198h-0.576c-0.454,0-0.842-0.161-1.165-0.484
			c-0.323-0.323-0.484-0.711-0.484-1.165c0-0.454,0.161-0.842,0.484-1.165c0.323-0.323,0.711-0.484,1.165-0.484h0.576v-1.701
			c0-0.576,0.2-1.064,0.602-1.466c0.401-0.401,0.89-0.602,1.466-0.602c0.576,0,1.064,0.201,1.466,0.602
			c0.401,0.402,0.602,0.89,0.602,1.466v1.701h1.361c0.454,0,0.842,0.162,1.165,0.484c0.323,0.323,0.484,0.711,0.484,1.165
			C41.14,21.918,40.979,22.306,40.656,22.629z"/>
		<path style="fill:#FFFFFF;" d="M17.405,44.215c0.027-0.402,0.193-0.765,0.45-1.043L6.873,31.903L0.99,36.921
			c0.421,2.076,1.014,4.095,1.899,6.017c-0.002,0.011-0.004,0.021-0.006,0.032c0.154,0.334,0.316,0.666,0.49,0.994
			c0.309,0.582,0.658,1.13,1.029,1.662L17.405,44.215z"/>
		<path style="fill:#FFFFFF;" d="M6.673,31.697L0,24.85c-0.004,1.885,0.091,3.772,0.174,5.656c0.091,2.05,0.358,4.081,0.75,6.095
			L6.673,31.697z"/>
		<path style="fill:#FFFFFF;" d="M29.294,15.836c-0.838,0-1.257,0.576-1.257,1.728v2.251h0.706l1.471-3.701
			C29.936,15.935,29.631,15.836,29.294,15.836z"/>
		<path style="fill:#FFFFFF;" d="M32.013,10.461l-2.084,1.777c0.586,0.098,1.121,0.281,1.611,0.541l0.821-2.066
			C32.234,10.645,32.118,10.559,32.013,10.461z"/>
	</g>
	<g>
		<path style="fill:#FFFFFF;" d="M12.084,27.982c0.558,0.559,1.239,0.838,2.042,0.838c0.802,0,1.483-0.279,2.042-0.838
			c0.558-0.558,0.838-1.239,0.838-2.042c0-0.782-0.27-1.446-0.8-1.996l-4.375,3.732C11.91,27.78,11.987,27.885,12.084,27.982z"/>
		<path style="fill:#FFFFFF;" d="M14.126,23.061c-0.803,0-1.484,0.279-2.042,0.838c-0.559,0.559-0.838,1.239-0.838,2.042
			c0,0.561,0.145,1.059,0.418,1.501l4.326-3.69C15.465,23.299,14.848,23.061,14.126,23.061z"/>
	</g>
</g>
<g>
</g>
<g>
</g>
<g>
</g>
<g>
</g>
<g>
</g>
<g>
</g>
</svg>
