<?xml version="1.0" encoding="iso-8859-1"?>
<!-- Generator: Adobe Illustrator 21.0.1, SVG Export Plug-In . SVG Version: 6.00 Build 0)  -->
<svg version="1.1" id="&#x421;&#x43B;&#x43E;&#x439;_1"
	 xmlns="http://www.w3.org/2000/svg" xmlns:xlink="http://www.w3.org/1999/xlink" x="0px" y="0px" viewBox="0 0 120.614 50.855"
	 style="enable-background:new 0 0 120.614 50.855;" xml:space="preserve">
<g>
	<g>
		<path d="M15.093,50.855c-3.236-0.028-5.855-0.693-8.12-2.462c-1.537-1.2-2.688-2.715-3.596-4.427
			c-1.207-2.274-1.927-4.713-2.423-7.225c-0.407-2.059-0.682-4.137-0.775-6.233c-0.087-1.958-0.191-3.919-0.178-5.878
			c0.013-1.889,0.108-3.781,0.271-5.663c0.279-3.215,0.815-6.386,1.931-9.433c0.892-2.437,2.11-4.674,4.04-6.461
			c1.719-1.592,3.754-2.527,6.063-2.888c2.902-0.454,5.727-0.024,8.517,0.751c4.142,1.15,7.971,3.022,11.694,5.127
			c3.218,1.819,6.32,3.816,9.163,6.189c2.239,1.868,4.28,3.921,5.826,6.42c1.056,1.707,1.793,3.537,2.016,5.542
			c0.218,1.963-0.103,3.856-0.852,5.681c-0.854,2.079-2.135,3.877-3.64,5.523c-2.351,2.571-5.082,4.688-7.982,6.592
			c-4.015,2.636-8.199,4.959-12.68,6.716c-2.228,0.874-4.511,1.558-6.883,1.903C16.557,50.764,15.616,50.808,15.093,50.855z"/>
	</g>
	<path d="M47.506,18.672c-1.546-2.499-3.587-4.551-5.826-6.42c-1.186-0.99-2.418-1.911-3.683-2.784
		C20.016,11.375,5.607,25.247,2.888,42.973c0.154,0.334,0.316,0.666,0.49,0.994c0.908,1.711,2.059,3.227,3.596,4.427
		c2.265,1.769,4.884,2.434,8.12,2.462c0.523-0.048,1.464-0.091,2.391-0.226c2.372-0.346,4.655-1.03,6.883-1.903
		c4.482-1.757,8.666-4.08,12.68-6.716c2.9-1.904,5.631-4.021,7.982-6.592c1.506-1.647,2.787-3.445,3.64-5.523
		c0.749-1.824,1.07-3.718,0.852-5.681C49.299,22.21,48.563,20.379,47.506,18.672z"/>
	<path d="M59.723,15.146h2.671c1.968,0,3.51,0.512,4.627,1.535c1.116,1.023,1.675,2.316,1.675,3.877
		c0,1.562-0.559,2.855-1.675,3.877c-1.117,1.023-2.659,1.534-4.627,1.534h-0.633v3.819c0,0.562-0.199,1.043-0.597,1.441
		c-0.398,0.398-0.879,0.598-1.441,0.598c-0.562,0-1.043-0.199-1.441-0.598c-0.398-0.398-0.597-0.878-0.597-1.441V17.184
		c0-0.562,0.199-1.043,0.597-1.441S59.16,15.146,59.723,15.146z M61.761,18.683v3.748h0.656c1.468,0,2.202-0.625,2.202-1.874
		c0-1.249-0.734-1.874-2.202-1.874H61.761z"/>
	<path d="M73.366,22.01c0.328-0.5,0.753-0.91,1.277-1.23c0.523-0.32,1.081-0.48,1.675-0.48c0.547,0,0.984,0.16,1.312,0.48
		c0.328,0.32,0.492,0.715,0.492,1.183c0,0.453-0.164,0.843-0.492,1.171c-0.328,0.328-0.719,0.492-1.171,0.492
		c-0.125,0-0.281-0.024-0.469-0.07c-0.172-0.047-0.336-0.07-0.492-0.07c-0.672,0-1.195,0.227-1.57,0.679
		c-0.375,0.453-0.562,1.086-0.562,1.898v3.912c0,0.515-0.18,0.953-0.539,1.312c-0.359,0.359-0.797,0.539-1.312,0.539
		c-0.515,0-0.953-0.18-1.312-0.539c-0.359-0.359-0.539-0.797-0.539-1.312v-7.825c0-0.515,0.179-0.953,0.539-1.312
		C70.563,20.48,71,20.3,71.515,20.3c0.5,0,0.925,0.164,1.277,0.492C73.144,21.12,73.335,21.526,73.366,22.01z"/>
	<path d="M87.51,21.987c1.187,1.109,1.78,2.468,1.78,4.077c0,1.609-0.59,2.972-1.769,4.088c-1.179,1.117-2.62,1.675-4.322,1.675
		c-1.702,0-3.143-0.558-4.322-1.675c-1.18-1.116-1.769-2.479-1.769-4.088c0-1.609,0.589-2.971,1.769-4.088
		c1.179-1.117,2.62-1.675,4.322-1.675C84.902,20.3,86.339,20.862,87.51,21.987z M84.863,27.773c0.484-0.453,0.726-1.023,0.726-1.71
		s-0.242-1.257-0.726-1.71c-0.484-0.453-1.039-0.679-1.663-0.679c-0.625,0-1.179,0.226-1.663,0.679
		c-0.484,0.453-0.726,1.023-0.726,1.71s0.242,1.257,0.726,1.71c0.484,0.453,1.038,0.679,1.663,0.679
		C83.824,28.453,84.378,28.227,84.863,27.773z"/>
	<path d="M104.34,29.976V25.22c0-0.5-0.156-0.914-0.469-1.242c-0.313-0.328-0.703-0.492-1.171-0.492
		c-0.469,0-0.859,0.164-1.171,0.492c-0.313,0.328-0.469,0.742-0.469,1.242v4.756c0,0.515-0.18,0.953-0.539,1.312
		c-0.359,0.359-0.797,0.539-1.312,0.539c-0.515,0-0.953-0.18-1.312-0.539c-0.359-0.359-0.539-0.797-0.539-1.312V25.22
		c0-0.5-0.156-0.914-0.469-1.242c-0.313-0.328-0.703-0.492-1.171-0.492c-0.469,0-0.859,0.164-1.171,0.492
		c-0.313,0.328-0.469,0.742-0.469,1.242v4.756c0,0.515-0.18,0.953-0.539,1.312c-0.359,0.359-0.797,0.539-1.312,0.539
		c-0.515,0-0.953-0.18-1.312-0.539c-0.359-0.359-0.539-0.797-0.539-1.312v-7.825c0-0.515,0.179-0.953,0.539-1.312
		c0.359-0.359,0.797-0.539,1.312-0.539c0.5,0,0.925,0.168,1.277,0.504c0.352,0.336,0.543,0.738,0.574,1.206
		c0.343-0.5,0.804-0.91,1.382-1.23c0.578-0.32,1.179-0.48,1.804-0.48c1.374,0,2.437,0.578,3.186,1.734
		c0.984-1.156,2.233-1.734,3.748-1.734c1.125,0,2.046,0.367,2.765,1.101c0.718,0.734,1.078,1.718,1.078,2.952v5.623
		c0,0.515-0.18,0.953-0.539,1.312c-0.359,0.359-0.797,0.539-1.312,0.539c-0.515,0-0.953-0.18-1.312-0.539
		C104.519,30.929,104.34,30.491,104.34,29.976z"/>
	<path d="M118.834,21.97c1.187,1.109,1.78,2.468,1.78,4.077c0,1.609-0.59,2.972-1.769,4.088c-1.179,1.117-2.62,1.675-4.322,1.675
		s-3.143-0.558-4.322-1.675c-1.18-1.116-1.769-2.479-1.769-4.088c0-1.609,0.589-2.971,1.769-4.088
		c1.179-1.117,2.62-1.675,4.322-1.675S117.662,20.845,118.834,21.97z M116.186,27.756c0.484-0.453,0.726-1.023,0.726-1.71
		s-0.242-1.257-0.726-1.71c-0.484-0.453-1.039-0.679-1.663-0.679c-0.625,0-1.179,0.226-1.663,0.679
		c-0.484,0.453-0.726,1.023-0.726,1.71s0.242,1.257,0.726,1.71c0.484,0.453,1.038,0.679,1.663,0.679
		C115.148,28.436,115.702,28.21,116.186,27.756z"/>
	<g>
		<path d="M60.339,38.861c-0.362,0-0.704-0.063-1.025-0.188c-0.321-0.125-0.603-0.311-0.845-0.556
			c-0.242-0.245-0.434-0.55-0.574-0.915s-0.21-0.787-0.21-1.266c0-0.473,0.073-0.895,0.219-1.266
			c0.146-0.371,0.342-0.685,0.587-0.942c0.245-0.257,0.531-0.452,0.859-0.587c0.327-0.134,0.671-0.201,1.034-0.201
			c0.368,0,0.698,0.074,0.99,0.223c0.292,0.149,0.534,0.323,0.727,0.521l-0.683,0.823c-0.146-0.134-0.299-0.244-0.46-0.329
			c-0.161-0.085-0.343-0.127-0.548-0.127c-0.193,0-0.375,0.042-0.547,0.127c-0.172,0.085-0.321,0.206-0.447,0.364
			c-0.126,0.158-0.225,0.351-0.298,0.578c-0.073,0.228-0.11,0.485-0.11,0.771c0,0.59,0.125,1.047,0.377,1.371
			c0.251,0.324,0.587,0.486,1.007,0.486c0.234,0,0.442-0.051,0.626-0.153c0.184-0.102,0.346-0.229,0.486-0.381l0.683,0.806
			C61.708,38.58,61.092,38.861,60.339,38.861z"/>
		<path d="M62.949,38.756v-4.345H64l0.088,0.762h0.035c0.158-0.298,0.347-0.517,0.569-0.657c0.222-0.14,0.444-0.21,0.666-0.21
			c0.123,0,0.223,0.007,0.302,0.022c0.079,0.015,0.15,0.037,0.215,0.066l-0.21,1.112c-0.082-0.023-0.158-0.041-0.228-0.052
			s-0.152-0.018-0.245-0.018c-0.164,0-0.334,0.058-0.512,0.175c-0.178,0.117-0.326,0.324-0.442,0.622v2.523H62.949z"/>
		<path d="M68.292,38.861c-0.31,0-0.599-0.051-0.867-0.153c-0.269-0.102-0.502-0.251-0.701-0.447
			c-0.199-0.195-0.353-0.433-0.464-0.714c-0.111-0.28-0.166-0.602-0.166-0.964c0-0.351,0.058-0.667,0.175-0.95
			c0.117-0.283,0.27-0.523,0.46-0.718c0.19-0.196,0.407-0.346,0.653-0.451c0.245-0.105,0.499-0.157,0.762-0.157
			c0.31,0,0.58,0.052,0.81,0.157c0.231,0.105,0.423,0.251,0.578,0.438c0.155,0.187,0.27,0.408,0.346,0.661
			c0.076,0.254,0.114,0.53,0.114,0.828c0,0.117-0.006,0.228-0.018,0.333s-0.023,0.184-0.035,0.237h-2.602
			c0.058,0.315,0.188,0.547,0.39,0.696c0.201,0.149,0.448,0.223,0.74,0.223c0.309,0,0.622-0.096,0.937-0.289l0.429,0.78
			c-0.222,0.152-0.469,0.271-0.74,0.359C68.822,38.817,68.555,38.861,68.292,38.861z M67.329,36.11h1.568
			c0-0.245-0.056-0.444-0.166-0.596c-0.111-0.152-0.298-0.228-0.561-0.228c-0.204,0-0.384,0.067-0.539,0.201
			C67.476,35.623,67.376,35.83,67.329,36.11z"/>
		<path d="M71.884,38.861c-0.199,0-0.378-0.034-0.539-0.101c-0.161-0.067-0.296-0.161-0.407-0.28
			c-0.111-0.119-0.197-0.258-0.258-0.416c-0.061-0.158-0.092-0.33-0.092-0.517c0-0.456,0.193-0.812,0.578-1.069
			s1.007-0.429,1.866-0.517c-0.012-0.193-0.069-0.346-0.171-0.46c-0.102-0.114-0.273-0.171-0.512-0.171
			c-0.187,0-0.372,0.035-0.556,0.105c-0.184,0.07-0.381,0.166-0.591,0.289l-0.464-0.85c0.28-0.169,0.574-0.307,0.88-0.412
			c0.307-0.105,0.632-0.157,0.977-0.157c0.561,0,0.988,0.159,1.283,0.477c0.295,0.319,0.442,0.813,0.442,1.485v2.488h-1.051
			l-0.088-0.447h-0.035c-0.187,0.163-0.383,0.296-0.587,0.399C72.354,38.809,72.129,38.861,71.884,38.861z M72.322,37.862
			c0.146,0,0.272-0.032,0.376-0.096c0.105-0.064,0.216-0.155,0.333-0.272v-0.762c-0.456,0.064-0.771,0.158-0.946,0.28
			c-0.175,0.123-0.263,0.269-0.263,0.438c0,0.14,0.045,0.244,0.136,0.311C72.049,37.829,72.17,37.862,72.322,37.862z"/>
		<path d="M76.921,38.861c-0.269,0-0.498-0.041-0.688-0.123s-0.345-0.195-0.464-0.342c-0.12-0.146-0.207-0.323-0.263-0.53
			s-0.083-0.437-0.083-0.688v-1.761h-0.596v-0.955l0.666-0.052l0.149-1.156h1.069v1.156h1.042v1.007h-1.042v1.743
			c0,0.245,0.051,0.422,0.153,0.53c0.102,0.108,0.238,0.162,0.407,0.162c0.07,0,0.142-0.009,0.215-0.026
			c0.073-0.018,0.138-0.038,0.197-0.061l0.202,0.937c-0.117,0.035-0.254,0.07-0.412,0.105
			C77.315,38.843,77.131,38.861,76.921,38.861z"/>
		<path d="M79.242,33.771c-0.216,0-0.394-0.063-0.534-0.188c-0.14-0.125-0.21-0.288-0.21-0.486c0-0.198,0.07-0.359,0.21-0.482
			c0.14-0.123,0.318-0.184,0.534-0.184c0.222,0,0.402,0.061,0.539,0.184c0.137,0.123,0.206,0.283,0.206,0.482
			c0,0.199-0.069,0.361-0.206,0.486C79.644,33.708,79.464,33.771,79.242,33.771z M78.603,38.756v-4.345h1.288v4.345H78.603z"/>
		<path d="M82.019,38.756l-1.463-4.345h1.297l0.561,2.05c0.058,0.216,0.115,0.437,0.171,0.661c0.056,0.225,0.113,0.451,0.171,0.679
			h0.035c0.053-0.228,0.107-0.454,0.162-0.679c0.056-0.225,0.113-0.445,0.171-0.661l0.569-2.05h1.235l-1.419,4.345H82.019z"/>
		<path d="M87.476,38.861c-0.31,0-0.599-0.051-0.867-0.153c-0.269-0.102-0.502-0.251-0.701-0.447
			c-0.199-0.195-0.353-0.433-0.464-0.714c-0.111-0.28-0.166-0.602-0.166-0.964c0-0.351,0.058-0.667,0.175-0.95
			c0.117-0.283,0.27-0.523,0.46-0.718c0.19-0.196,0.408-0.346,0.653-0.451c0.245-0.105,0.499-0.157,0.762-0.157
			c0.309,0,0.579,0.052,0.81,0.157c0.231,0.105,0.423,0.251,0.578,0.438c0.155,0.187,0.27,0.408,0.346,0.661
			c0.076,0.254,0.114,0.53,0.114,0.828c0,0.117-0.006,0.228-0.018,0.333c-0.012,0.105-0.024,0.184-0.035,0.237h-2.602
			c0.058,0.315,0.188,0.547,0.39,0.696c0.201,0.149,0.448,0.223,0.74,0.223c0.309,0,0.622-0.096,0.937-0.289l0.429,0.78
			c-0.222,0.152-0.469,0.271-0.74,0.359C88.006,38.817,87.739,38.861,87.476,38.861z M86.513,36.11h1.568
			c0-0.245-0.056-0.444-0.166-0.596c-0.111-0.152-0.298-0.228-0.561-0.228c-0.205,0-0.384,0.067-0.539,0.201
			C86.66,35.623,86.559,35.83,86.513,36.11z"/>
		<path d="M91.62,38.861c-0.309,0-0.583-0.044-0.819-0.131c-0.237-0.088-0.435-0.206-0.596-0.355
			c-0.161-0.149-0.282-0.321-0.364-0.517c-0.082-0.195-0.123-0.404-0.123-0.626c0-0.198,0.028-0.378,0.083-0.539
			c0.056-0.16,0.132-0.305,0.228-0.433c0.096-0.128,0.207-0.245,0.333-0.351c0.126-0.105,0.258-0.201,0.399-0.289
			c-0.111-0.204-0.197-0.407-0.258-0.609c-0.061-0.201-0.092-0.393-0.092-0.574c0-0.204,0.037-0.397,0.11-0.578
			c0.073-0.181,0.176-0.34,0.311-0.477c0.134-0.137,0.296-0.245,0.486-0.324c0.19-0.079,0.404-0.118,0.644-0.118
			c0.432,0,0.774,0.117,1.025,0.35c0.251,0.234,0.377,0.549,0.377,0.946c0,0.187-0.034,0.358-0.101,0.513
			c-0.067,0.155-0.158,0.298-0.271,0.429c-0.114,0.132-0.243,0.253-0.386,0.364c-0.143,0.111-0.288,0.216-0.433,0.315
			c0.163,0.187,0.343,0.369,0.539,0.547c0.195,0.178,0.399,0.343,0.609,0.495c0.146-0.187,0.274-0.394,0.385-0.622
			c0.111-0.228,0.201-0.476,0.272-0.745h1.174c-0.105,0.35-0.235,0.685-0.39,1.003c-0.155,0.318-0.343,0.626-0.565,0.924
			c0.181,0.093,0.355,0.171,0.521,0.232c0.166,0.061,0.322,0.104,0.469,0.127l-0.307,1.042c-0.24-0.047-0.482-0.119-0.727-0.219
			c-0.245-0.099-0.49-0.219-0.736-0.359c-0.245,0.181-0.515,0.323-0.81,0.425C92.31,38.809,91.982,38.861,91.62,38.861z
			 M91.786,37.88c0.239,0,0.479-0.076,0.718-0.228c-0.222-0.181-0.432-0.371-0.631-0.569s-0.383-0.403-0.552-0.613
			c-0.117,0.1-0.21,0.205-0.28,0.315c-0.07,0.111-0.105,0.234-0.105,0.368c0,0.216,0.077,0.391,0.232,0.526
			C91.323,37.812,91.529,37.88,91.786,37.88z M91.471,34.428c0,0.105,0.016,0.216,0.048,0.333c0.032,0.117,0.077,0.234,0.136,0.351
			c0.204-0.123,0.377-0.251,0.517-0.385c0.14-0.134,0.21-0.298,0.21-0.491c0-0.134-0.032-0.242-0.096-0.324
			c-0.064-0.082-0.164-0.123-0.298-0.123c-0.146,0-0.269,0.057-0.368,0.171C91.52,34.073,91.471,34.23,91.471,34.428z"/>
		<path d="M96.017,38.756v-5.711h1.612c0.438,0,0.832,0.056,1.183,0.166c0.35,0.111,0.651,0.282,0.902,0.513
			c0.251,0.231,0.444,0.524,0.578,0.88c0.134,0.356,0.201,0.78,0.201,1.27c0,0.49-0.067,0.917-0.201,1.279
			c-0.134,0.362-0.324,0.661-0.569,0.898c-0.245,0.237-0.539,0.413-0.88,0.53c-0.342,0.117-0.723,0.175-1.143,0.175H96.017z
			 M97.305,37.713h0.245c0.245,0,0.467-0.032,0.666-0.096c0.198-0.064,0.368-0.168,0.508-0.311c0.14-0.143,0.25-0.331,0.329-0.565
			c0.079-0.233,0.118-0.523,0.118-0.867c0-0.339-0.039-0.623-0.118-0.854c-0.079-0.231-0.188-0.414-0.329-0.552
			c-0.14-0.137-0.31-0.235-0.508-0.294c-0.199-0.058-0.42-0.088-0.666-0.088h-0.245V37.713z"/>
		<path d="M102.114,33.771c-0.216,0-0.394-0.063-0.534-0.188c-0.14-0.125-0.21-0.288-0.21-0.486c0-0.198,0.07-0.359,0.21-0.482
			c0.14-0.123,0.318-0.184,0.534-0.184c0.222,0,0.402,0.061,0.539,0.184c0.137,0.123,0.206,0.283,0.206,0.482
			c0,0.199-0.069,0.361-0.206,0.486C102.515,33.708,102.336,33.771,102.114,33.771z M101.474,38.756v-4.345h1.288v4.345H101.474z"/>
		<path d="M105.442,40.604c-0.257,0-0.495-0.022-0.714-0.066c-0.219-0.044-0.412-0.11-0.578-0.197
			c-0.166-0.088-0.296-0.201-0.39-0.342c-0.094-0.14-0.14-0.307-0.14-0.499c0-0.35,0.207-0.642,0.622-0.876v-0.035
			c-0.117-0.076-0.213-0.172-0.289-0.289c-0.076-0.117-0.114-0.266-0.114-0.447c0-0.158,0.047-0.308,0.14-0.451
			c0.093-0.143,0.21-0.264,0.35-0.364v-0.035c-0.152-0.105-0.288-0.255-0.407-0.451c-0.12-0.195-0.18-0.422-0.18-0.679
			c0-0.263,0.05-0.492,0.149-0.688c0.099-0.195,0.232-0.359,0.399-0.49c0.166-0.132,0.358-0.229,0.574-0.294
			c0.216-0.064,0.441-0.096,0.674-0.096c0.257,0,0.482,0.035,0.675,0.105h1.586v0.937h-0.692c0.041,0.064,0.075,0.146,0.101,0.245
			c0.026,0.099,0.039,0.207,0.039,0.324c0,0.251-0.044,0.469-0.131,0.652c-0.088,0.184-0.209,0.336-0.364,0.456
			c-0.155,0.12-0.336,0.209-0.543,0.267c-0.207,0.058-0.431,0.088-0.67,0.088c-0.169,0-0.345-0.029-0.526-0.088
			c-0.058,0.047-0.099,0.094-0.123,0.14c-0.023,0.047-0.035,0.108-0.035,0.184c0,0.111,0.048,0.193,0.144,0.245
			c0.096,0.052,0.267,0.079,0.513,0.079h0.701c0.537,0,0.947,0.086,1.231,0.258c0.283,0.172,0.425,0.454,0.425,0.845
			c0,0.228-0.057,0.437-0.171,0.627c-0.114,0.19-0.276,0.353-0.486,0.49c-0.21,0.137-0.464,0.245-0.762,0.324
			C106.152,40.564,105.816,40.604,105.442,40.604z M105.644,39.798c0.292,0,0.532-0.051,0.718-0.153
			c0.187-0.102,0.28-0.229,0.28-0.381c0-0.134-0.057-0.225-0.171-0.271c-0.114-0.047-0.279-0.07-0.495-0.07h-0.447
			c-0.152,0-0.275-0.004-0.368-0.013c-0.094-0.009-0.175-0.022-0.245-0.039c-0.158,0.14-0.236,0.283-0.236,0.429
			c0,0.163,0.088,0.288,0.263,0.372C105.118,39.755,105.352,39.798,105.644,39.798z M105.539,36.601c0.169,0,0.311-0.06,0.425-0.18
			c0.114-0.12,0.171-0.302,0.171-0.547c0-0.228-0.057-0.401-0.171-0.521c-0.114-0.12-0.256-0.18-0.425-0.18
			c-0.169,0-0.311,0.058-0.425,0.175c-0.114,0.117-0.171,0.292-0.171,0.526c0,0.245,0.057,0.428,0.171,0.547
			C105.228,36.541,105.369,36.601,105.539,36.601z"/>
		<path d="M109.209,33.771c-0.216,0-0.394-0.063-0.534-0.188c-0.14-0.125-0.21-0.288-0.21-0.486c0-0.198,0.07-0.359,0.21-0.482
			c0.14-0.123,0.318-0.184,0.534-0.184c0.222,0,0.402,0.061,0.539,0.184c0.137,0.123,0.206,0.283,0.206,0.482
			c0,0.199-0.069,0.361-0.206,0.486C109.611,33.708,109.431,33.771,109.209,33.771z M108.57,38.756v-4.345h1.288v4.345H108.57z"/>
		<path d="M112.66,38.861c-0.269,0-0.498-0.041-0.688-0.123s-0.345-0.195-0.464-0.342c-0.12-0.146-0.207-0.323-0.263-0.53
			s-0.083-0.437-0.083-0.688v-1.761h-0.596v-0.955l0.666-0.052l0.149-1.156h1.069v1.156h1.042v1.007h-1.042v1.743
			c0,0.245,0.051,0.422,0.153,0.53c0.102,0.108,0.238,0.162,0.407,0.162c0.07,0,0.142-0.009,0.215-0.026
			c0.073-0.018,0.138-0.038,0.197-0.061l0.202,0.937c-0.117,0.035-0.254,0.07-0.412,0.105
			C113.054,38.843,112.871,38.861,112.66,38.861z"/>
		<path d="M115.262,38.861c-0.199,0-0.378-0.034-0.539-0.101c-0.161-0.067-0.296-0.161-0.407-0.28
			c-0.111-0.119-0.197-0.258-0.258-0.416c-0.061-0.158-0.092-0.33-0.092-0.517c0-0.456,0.193-0.812,0.578-1.069
			s1.007-0.429,1.866-0.517c-0.012-0.193-0.069-0.346-0.171-0.46c-0.102-0.114-0.273-0.171-0.512-0.171
			c-0.187,0-0.372,0.035-0.556,0.105c-0.184,0.07-0.381,0.166-0.591,0.289l-0.464-0.85c0.28-0.169,0.574-0.307,0.88-0.412
			c0.307-0.105,0.632-0.157,0.977-0.157c0.561,0,0.988,0.159,1.283,0.477c0.295,0.319,0.442,0.813,0.442,1.485v2.488h-1.051
			l-0.088-0.447h-0.035c-0.187,0.163-0.383,0.296-0.587,0.399C115.732,38.809,115.507,38.861,115.262,38.861z M115.7,37.862
			c0.146,0,0.271-0.032,0.376-0.096c0.105-0.064,0.216-0.155,0.333-0.272v-0.762c-0.456,0.064-0.771,0.158-0.946,0.28
			c-0.175,0.123-0.263,0.269-0.263,0.438c0,0.14,0.045,0.244,0.136,0.311C115.427,37.829,115.548,37.862,115.7,37.862z"/>
		<path d="M119.966,38.861c-0.222,0-0.409-0.035-0.561-0.105c-0.152-0.07-0.273-0.168-0.364-0.294
			c-0.091-0.125-0.156-0.277-0.197-0.455s-0.061-0.378-0.061-0.6v-4.792h1.288v4.844c0,0.134,0.025,0.228,0.075,0.28
			c0.05,0.053,0.101,0.079,0.153,0.079c0.029,0,0.054,0,0.074,0c0.02,0,0.048-0.006,0.083-0.018l0.157,0.955
			c-0.07,0.029-0.159,0.054-0.267,0.075C120.239,38.851,120.112,38.861,119.966,38.861z"/>
	</g>
	<path style="fill:#FFFFFF;" d="M33.178,7.507c-0.617,0-1.157,0.329-1.457,0.82L16.389,0.08c-0.228-0.021-0.455-0.038-0.684-0.051
		l-0.004,0.007l15.891,8.546c-0.001,0.003-0.002,0.005-0.003,0.008L9.96,0.79C9.824,0.84,9.688,0.893,9.555,0.948l21.952,7.916
		c-0.023,0.113-0.036,0.23-0.036,0.349c0,0.029,0.003,0.057,0.004,0.085L1.633,11.265c-0.029,0.097-0.055,0.195-0.083,0.292
		l29.961-1.974c0.055,0.248,0.164,0.475,0.313,0.669L6.896,31.514l-6.892-7.072c-0.001,0.063-0.003,0.126-0.003,0.189
		c0,0.073,0.002,0.146,0.001,0.219l6.675,6.85l-5.75,4.904c0.009,0.046,0.017,0.092,0.026,0.138
		c0.012,0.061,0.026,0.122,0.039,0.183l5.886-5.02l10.982,11.27c-0.257,0.278-0.423,0.641-0.45,1.043L4.391,45.631
		c0.062,0.09,0.125,0.179,0.189,0.268l12.832-1.392c0.058,0.583,0.409,1.078,0.903,1.339l-2.033,4.917
		c0.105-0.009,0.212-0.019,0.322-0.029l1.974-4.776c0.167,0.055,0.346,0.086,0.532,0.086c0.943,0,1.708-0.765,1.708-1.708
		c0-0.654-0.369-1.222-0.909-1.509L32.629,10.83c0.172,0.059,0.357,0.092,0.549,0.092c0.943,0,1.708-0.765,1.708-1.708
		C34.886,8.271,34.121,7.507,33.178,7.507z M19.647,42.714c-0.168-0.056-0.348-0.087-0.535-0.087c-0.392,0-0.752,0.133-1.04,0.355
		L7.097,31.72l24.921-21.255c0.105,0.098,0.221,0.183,0.348,0.252L19.647,42.714z"/>
	<path style="fill:#FFFFFF;" d="M21.303,21.572v8.743c0,0.576-0.201,1.065-0.602,1.466c-0.402,0.401-0.89,0.602-1.466,0.602
		c-0.559,0-1.034-0.183-1.427-0.55c-0.393-0.366-0.606-0.82-0.641-1.361c-0.384,0.541-0.938,0.995-1.662,1.361
		c-0.724,0.366-1.523,0.55-2.395,0.55c-1.71,0-3.154-0.619-4.332-1.858c-1.178-1.239-1.767-2.766-1.767-4.581
		c0-1.815,0.589-3.342,1.767-4.581c1.178-1.239,2.622-1.858,4.332-1.858c0.872,0,1.671,0.183,2.395,0.55
		c0.724,0.366,1.278,0.82,1.662,1.361c0.035-0.541,0.249-0.995,0.641-1.361c0.393-0.366,0.868-0.55,1.427-0.55
		c0.576,0,1.064,0.201,1.466,0.602C21.102,20.508,21.303,20.996,21.303,21.572z M16.172,27.985c0.558-0.558,0.838-1.239,0.838-2.042
		c0-0.802-0.279-1.483-0.838-2.042c-0.559-0.558-1.239-0.838-2.042-0.838c-0.803,0-1.484,0.279-2.042,0.838
		c-0.559,0.559-0.838,1.239-0.838,2.042c0,0.803,0.279,1.483,0.838,2.042c0.558,0.559,1.239,0.838,2.042,0.838
		C14.933,28.823,15.614,28.544,16.172,27.985z"/>
	<path style="fill:#FFFFFF;" d="M23.906,19.818v-2.356c0-1.658,0.436-2.958,1.309-3.9c0.872-0.942,2.077-1.413,3.612-1.413
		c1.448,0,2.652,0.41,3.612,1.23c0.453,0.402,0.681,0.873,0.681,1.413c0,0.489-0.162,0.899-0.484,1.23
		c-0.323,0.332-0.729,0.497-1.217,0.497c-0.384,0-0.759-0.122-1.126-0.366c-0.297-0.209-0.628-0.314-0.995-0.314
		c-0.838,0-1.257,0.576-1.257,1.728v2.251h1.885c0.453,0,0.842,0.162,1.165,0.484c0.323,0.323,0.484,0.711,0.484,1.165
		c0,0.454-0.162,0.842-0.484,1.165c-0.323,0.323-0.711,0.484-1.165,0.484h-1.885v7.198c0,0.576-0.201,1.065-0.602,1.466
		c-0.402,0.401-0.89,0.602-1.466,0.602c-0.576,0-1.065-0.201-1.466-0.602c-0.402-0.401-0.602-0.89-0.602-1.466v-7.198H23.33
		c-0.454,0-0.842-0.161-1.165-0.484c-0.323-0.323-0.484-0.711-0.484-1.165c0-0.454,0.161-0.842,0.484-1.165
		c0.323-0.323,0.711-0.484,1.165-0.484H23.906z"/>
	<path style="fill:#FFFFFF;" d="M33.999,30.315v-7.198h-0.576c-0.454,0-0.842-0.161-1.165-0.484
		c-0.323-0.323-0.484-0.711-0.484-1.165c0-0.454,0.161-0.842,0.484-1.165c0.323-0.323,0.711-0.484,1.165-0.484h0.576v-1.701
		c0-0.576,0.2-1.064,0.602-1.466c0.401-0.401,0.89-0.602,1.466-0.602c0.576,0,1.064,0.201,1.466,0.602
		c0.401,0.402,0.602,0.89,0.602,1.466v1.701h1.361c0.454,0,0.842,0.162,1.165,0.484c0.323,0.323,0.484,0.711,0.484,1.165
		c0,0.454-0.162,0.842-0.484,1.165c-0.323,0.323-0.711,0.484-1.165,0.484h-1.361v7.198c0,0.576-0.201,1.065-0.602,1.466
		c-0.402,0.401-0.89,0.602-1.466,0.602c-0.576,0-1.065-0.201-1.466-0.602C34.2,31.379,33.999,30.891,33.999,30.315z"/>
</g>
<g>
</g>
<g>
</g>
<g>
</g>
<g>
</g>
<g>
</g>
<g>
</g>
</svg>
