<svg xmlns="http://www.w3.org/2000/svg" viewBox="0 0 121 51"><g fill="#fff"><path d="M59.718 15.143h2.671c1.968 0 3.51.512 4.627 1.535 1.116 1.023 1.675 2.316 1.675 3.877 0 1.562-.559 2.855-1.675 3.877-1.117 1.023-2.659 1.534-4.627 1.534h-.633v3.819c0 .562-.199 1.043-.597 1.441a1.966 1.966 0 01-1.441.598 1.962 1.962 0 01-1.441-.598 1.963 1.963 0 01-.597-1.441V17.181c0-.562.199-1.043.597-1.441s.878-.597 1.441-.597zm2.038 3.537v3.748h.656c1.468 0 2.202-.625 2.202-1.874s-.734-1.874-2.202-1.874h-.656zm11.605 3.327c.328-.5.753-.91 1.277-1.23a3.154 3.154 0 011.675-.48c.547 0 .984.16 1.312.48.328.32.492.715.492 1.183 0 .453-.164.843-.492 1.171a1.6 1.6 0 01-1.171.492c-.125 0-.281-.024-.469-.07a1.865 1.865 0 00-.492-.07c-.672 0-1.195.227-1.57.679-.375.453-.562 1.086-.562 1.898v3.912c0 .515-.18.953-.539 1.312a1.787 1.787 0 01-1.312.539c-.515 0-.953-.18-1.312-.539a1.787 1.787 0 01-.539-1.312v-7.825c0-.515.179-.953.539-1.312a1.785 1.785 0 011.312-.539c.5 0 .925.164 1.277.492.352.329.543.735.574 1.219zm14.144-.023c1.187 1.109 1.78 2.468 1.78 4.077s-.59 2.972-1.769 4.088c-1.179 1.117-2.62 1.675-4.322 1.675s-3.143-.558-4.322-1.675c-1.18-1.116-1.769-2.479-1.769-4.088s.589-2.971 1.769-4.088c1.179-1.117 2.62-1.675 4.322-1.675s3.14.561 4.311 1.686zm-2.647 5.786c.484-.453.726-1.023.726-1.71s-.242-1.257-.726-1.71c-.484-.453-1.039-.679-1.663-.679-.625 0-1.179.226-1.663.679-.484.453-.726 1.023-.726 1.71s.242 1.257.726 1.71c.484.453 1.038.679 1.663.679.624.001 1.178-.226 1.663-.679zm19.477 2.203v-4.756c0-.5-.156-.914-.469-1.242-.313-.328-.703-.492-1.171-.492s-.859.164-1.171.492c-.313.328-.469.742-.469 1.242v4.756c0 .515-.18.953-.539 1.312a1.787 1.787 0 01-1.312.539c-.515 0-.953-.18-1.312-.539a1.787 1.787 0 01-.539-1.312v-4.756c0-.5-.156-.914-.469-1.242a1.552 1.552 0 00-1.171-.492c-.469 0-.859.164-1.171.492-.313.328-.469.742-.469 1.242v4.756c0 .515-.18.953-.539 1.312a1.787 1.787 0 01-1.312.539c-.515 0-.953-.18-1.312-.539a1.787 1.787 0 01-.539-1.312v-7.825c0-.515.179-.953.539-1.312a1.787 1.787 0 011.312-.539c.5 0 .925.168 1.277.504.352.336.543.738.574 1.206.343-.5.804-.91 1.382-1.23a3.675 3.675 0 011.804-.48c1.374 0 2.437.578 3.186 1.734.984-1.156 2.233-1.734 3.748-1.734 1.125 0 2.046.367 2.765 1.101.718.734 1.078 1.718 1.078 2.952v5.623c0 .515-.18.953-.539 1.312a1.787 1.787 0 01-1.312.539c-.515 0-.953-.18-1.312-.539a1.788 1.788 0 01-.538-1.312zm14.494-8.006c1.187 1.109 1.78 2.468 1.78 4.077s-.59 2.972-1.769 4.088c-1.179 1.117-2.62 1.675-4.323 1.675s-3.143-.558-4.322-1.675c-1.18-1.116-1.769-2.479-1.769-4.088s.589-2.971 1.769-4.088c1.179-1.117 2.62-1.675 4.322-1.675s3.14.561 4.312 1.686zm-2.648 5.786c.484-.453.726-1.023.726-1.71s-.242-1.257-.726-1.71c-.484-.453-1.039-.679-1.663-.679-.625 0-1.179.226-1.663.679-.484.453-.726 1.023-.726 1.71s.242 1.257.726 1.71c.484.453 1.038.679 1.663.679.625.001 1.179-.226 1.663-.679zM60.334 38.857c-.362 0-.704-.063-1.025-.188a2.4 2.4 0 01-.845-.556 2.615 2.615 0 01-.574-.915 3.522 3.522 0 01-.21-1.266c0-.473.073-.895.219-1.266a2.87 2.87 0 01.587-.942c.245-.257.531-.452.859-.587a2.698 2.698 0 011.034-.201c.368 0 .698.074.99.223.292.149.534.323.727.521l-.683.823a2.203 2.203 0 00-.46-.329 1.154 1.154 0 00-.548-.127c-.193 0-.375.042-.547.127a1.31 1.31 0 00-.447.364 1.802 1.802 0 00-.298.578c-.073.228-.11.485-.11.771 0 .59.125 1.047.377 1.371a1.21 1.21 0 001.007.486c.234 0 .442-.051.626-.153.184-.102.346-.229.486-.381l.683.806c-.479.561-1.095.841-1.848.841zm2.61-.105v-4.345h1.051l.088.762h.035c.158-.298.347-.517.569-.657.222-.14.444-.21.666-.21.123 0 .223.007.302.022.079.015.15.037.215.066l-.21 1.112a2.016 2.016 0 00-.228-.052 1.47 1.47 0 00-.245-.018.935.935 0 00-.512.175c-.178.117-.326.324-.442.622v2.523h-1.289zm5.343.105c-.31 0-.599-.051-.867-.153a1.993 1.993 0 01-1.165-1.161 2.604 2.604 0 01-.166-.964c0-.351.058-.667.175-.95.117-.283.27-.523.46-.718a1.987 1.987 0 011.415-.608c.31 0 .58.052.81.157.231.105.423.251.578.438.155.187.27.408.346.661.076.254.114.53.114.828a2.936 2.936 0 01-.053.57h-2.602c.058.315.188.547.39.696.201.149.448.223.74.223.309 0 .622-.096.937-.289l.429.78a2.87 2.87 0 01-.74.359 2.582 2.582 0 01-.801.131zm-.963-2.75h1.568c0-.245-.056-.444-.166-.596-.111-.152-.298-.228-.561-.228a.8.8 0 00-.539.201c-.155.136-.255.343-.302.623zm4.555 2.75c-.199 0-.378-.034-.539-.101a1.156 1.156 0 01-.407-.28 1.279 1.279 0 01-.258-.416 1.422 1.422 0 01-.092-.517c0-.456.193-.812.578-1.069s1.007-.429 1.866-.517a.736.736 0 00-.171-.46c-.102-.114-.273-.171-.512-.171-.187 0-.372.035-.556.105-.184.07-.381.166-.591.289l-.464-.85c.28-.169.574-.307.88-.412.307-.105.632-.157.977-.157.561 0 .988.159 1.283.477.295.319.442.813.442 1.485v2.488h-1.051l-.088-.447h-.035a2.847 2.847 0 01-.587.399c-.205.103-.43.154-.675.154zm.438-.998a.705.705 0 00.376-.096c.105-.064.216-.155.333-.272v-.762c-.456.064-.771.158-.946.28-.175.123-.263.269-.263.438 0 .14.045.244.136.311a.6.6 0 00.364.101zm4.599.998a1.73 1.73 0 01-.688-.123 1.19 1.19 0 01-.464-.342 1.396 1.396 0 01-.263-.53 2.637 2.637 0 01-.083-.688v-1.761h-.596v-.953l.666-.052.149-1.156h1.069v1.156h1.042v1.007h-1.042v1.743c0 .245.051.422.153.53a.534.534 0 00.407.162.95.95 0 00.215-.026c.073-.018.138-.038.197-.061l.202.937c-.117.035-.254.07-.412.105a2.576 2.576 0 01-.552.052zm2.321-5.089a.772.772 0 01-.534-.188.623.623 0 01-.21-.486c0-.198.07-.359.21-.482a.78.78 0 01.534-.184c.222 0 .401.061.539.184a.617.617 0 01.206.482.628.628 0 01-.206.486.77.77 0 01-.539.188zm-.639 4.984v-4.345h1.288v4.345h-1.288zm3.416 0l-1.463-4.345h1.297l.561 2.05c.058.216.115.437.171.661l.171.679h.035a37.08 37.08 0 01.333-1.34l.569-2.05h1.235l-1.419 4.345h-1.49zm5.457.105c-.31 0-.599-.051-.867-.153a1.993 1.993 0 01-1.165-1.161 2.604 2.604 0 01-.166-.964c0-.351.058-.667.175-.95.117-.283.27-.523.46-.718s.408-.346.653-.451c.245-.105.499-.157.762-.157.309 0 .579.052.81.157.231.105.423.251.578.438.155.187.27.408.346.661.076.254.114.53.114.828a2.936 2.936 0 01-.053.57h-2.602c.058.315.188.547.39.696.201.149.448.223.74.223.309 0 .622-.096.937-.289l.429.78a2.87 2.87 0 01-.74.359 2.582 2.582 0 01-.801.131zm-.963-2.75h1.568c0-.245-.056-.444-.166-.596-.111-.152-.298-.228-.561-.228a.798.798 0 00-.539.201c-.155.136-.256.343-.302.623zm5.107 2.75c-.309 0-.583-.044-.819-.131-.237-.088-.435-.206-.596-.355s-.282-.321-.364-.517a1.6 1.6 0 01-.123-.626c0-.198.028-.378.083-.539.056-.16.132-.305.228-.433s.207-.245.333-.351c.125-.105.258-.201.399-.289a3.228 3.228 0 01-.258-.609 1.982 1.982 0 01-.092-.574c0-.204.037-.397.11-.578a1.437 1.437 0 01.797-.801c.19-.079.404-.118.644-.118.432 0 .774.117 1.025.35.251.234.377.549.377.946 0 .187-.034.358-.101.513a1.67 1.67 0 01-.271.429 2.674 2.674 0 01-.386.364 8.785 8.785 0 01-.433.315 6.933 6.933 0 001.148 1.042c.146-.187.274-.394.385-.622.111-.228.201-.476.272-.745h1.174c-.105.35-.235.685-.39 1.003a5.796 5.796 0 01-.565.924c.181.093.355.171.521.232.166.061.322.104.469.127l-.307 1.042a3.905 3.905 0 01-.727-.219 6.144 6.144 0 01-.736-.359 3.01 3.01 0 01-.81.425 2.988 2.988 0 01-.987.154zm.166-.981c.239 0 .479-.076.718-.228-.222-.181-.432-.371-.631-.569s-.382-.403-.552-.613c-.117.1-.21.205-.28.315a.677.677 0 00-.105.368c0 .216.077.391.232.526.155.134.361.201.618.201zm-.315-3.451c0 .105.016.216.048.333.032.117.077.234.136.351.204-.123.377-.251.517-.385a.654.654 0 00.21-.491.512.512 0 00-.096-.324c-.064-.082-.164-.123-.298-.123a.469.469 0 00-.368.171c-.099.113-.149.27-.149.468zm4.546 4.327v-5.711h1.612c.438 0 .832.056 1.183.166.35.111.651.282.902.513.251.231.444.524.578.88.134.356.201.78.201 1.27s-.067.917-.201 1.279c-.134.362-.324.661-.569.898s-.539.413-.88.53a3.516 3.516 0 01-1.143.175h-1.683zM97.3 37.71h.245c.245 0 .467-.032.666-.096a1.23 1.23 0 00.508-.311c.14-.143.25-.331.329-.565.079-.233.118-.523.118-.867 0-.339-.039-.623-.118-.854a1.38 1.38 0 00-.329-.552 1.207 1.207 0 00-.508-.294 2.37 2.37 0 00-.666-.088H97.3v3.627zm4.809-3.942a.772.772 0 01-.534-.188.623.623 0 01-.21-.486c0-.198.07-.359.21-.482a.78.78 0 01.534-.184c.222 0 .401.061.539.184a.617.617 0 01.206.482.628.628 0 01-.206.486.771.771 0 01-.539.188zm-.64 4.984v-4.345h1.288v4.345h-1.288zm3.968 1.849c-.257 0-.495-.022-.714-.066a2.157 2.157 0 01-.578-.197 1.043 1.043 0 01-.39-.342.875.875 0 01-.14-.499c0-.35.207-.642.622-.876v-.035a.971.971 0 01-.289-.289.806.806 0 01-.114-.447c0-.158.047-.308.14-.451.093-.143.21-.264.35-.364V37a1.451 1.451 0 01-.407-.451 1.27 1.27 0 01-.18-.679c0-.263.05-.492.149-.688.099-.195.232-.359.399-.49.166-.132.358-.229.574-.294.216-.064.441-.096.674-.096.257 0 .482.035.675.105h1.586v.937h-.692a.86.86 0 01.101.245c.026.099.039.207.039.324 0 .251-.044.469-.131.652a1.247 1.247 0 01-.364.456c-.155.12-.336.209-.543.267a2.478 2.478 0 01-.67.088c-.169 0-.345-.029-.526-.088a.466.466 0 00-.123.14.419.419 0 00-.035.184.26.26 0 00.144.245c.096.052.267.079.513.079h.701c.537 0 .947.086 1.231.258.283.172.425.454.425.845 0 .228-.057.437-.171.627-.114.19-.276.353-.486.49-.21.137-.464.245-.762.324a3.847 3.847 0 01-1.008.121zm.202-.806c.292 0 .532-.051.718-.153s.28-.229.28-.381c0-.134-.057-.225-.171-.271-.114-.047-.279-.07-.495-.07h-.447c-.152 0-.275-.004-.368-.013a1.752 1.752 0 01-.245-.039c-.158.14-.236.283-.236.429 0 .163.088.288.263.372.175.083.409.126.701.126zm-.105-3.197c.169 0 .311-.06.425-.18.114-.12.171-.302.171-.547 0-.228-.057-.402-.171-.521a.563.563 0 00-.425-.18.57.57 0 00-.425.175c-.114.117-.171.292-.171.526 0 .245.057.428.171.547.114.12.255.18.425.18zm3.67-2.83a.772.772 0 01-.534-.188.623.623 0 01-.21-.486c0-.198.07-.359.21-.482a.78.78 0 01.534-.184c.222 0 .401.061.539.184a.617.617 0 01.206.482.628.628 0 01-.206.486.77.77 0 01-.539.188zm-.639 4.984v-4.345h1.288v4.345h-1.288zm4.091.105a1.73 1.73 0 01-.688-.123 1.19 1.19 0 01-.464-.342 1.396 1.396 0 01-.263-.53 2.637 2.637 0 01-.083-.688v-1.761h-.596v-.953l.666-.052.149-1.156h1.069v1.156h1.042v1.007h-1.042v1.743c0 .245.051.422.153.53a.534.534 0 00.407.162.95.95 0 00.215-.026c.073-.018.138-.038.197-.061l.202.937c-.117.035-.254.07-.412.105a2.576 2.576 0 01-.552.052zm2.601 0c-.199 0-.378-.034-.539-.101s-.296-.161-.407-.28a1.279 1.279 0 01-.258-.416 1.422 1.422 0 01-.092-.517c0-.456.193-.812.578-1.069s1.007-.429 1.866-.517a.736.736 0 00-.171-.46c-.102-.114-.273-.171-.512-.171-.187 0-.372.035-.556.105-.184.07-.381.166-.591.289l-.464-.85c.28-.169.574-.307.88-.412.307-.105.632-.157.977-.157.561 0 .988.159 1.283.477.295.319.442.813.442 1.485v2.488h-1.051l-.088-.447h-.035a2.847 2.847 0 01-.587.399 1.479 1.479 0 01-.675.154zm.438-.998a.708.708 0 00.376-.096c.105-.064.216-.155.333-.272v-.762c-.456.064-.771.158-.946.28-.175.123-.263.269-.263.438 0 .14.045.244.136.311a.6.6 0 00.364.101zm4.266.998c-.222 0-.409-.035-.561-.105a.906.906 0 01-.364-.294c-.091-.125-.156-.277-.197-.455s-.061-.378-.061-.6v-4.792h1.288v4.844c0 .134.025.228.075.28.05.053.101.079.153.079h.074c.02 0 .048-.006.083-.018l.157.955c-.07.029-.159.054-.267.075a2.004 2.004 0 01-.38.031zM6.892 31.511l1.592-1.358c-.968-1.172-1.478-2.568-1.478-4.213 0-1.815.589-3.342 1.767-4.581 1.178-1.239 2.622-1.858 4.332-1.858.872 0 1.671.183 2.395.55.724.367 1.278.82 1.662 1.361.035-.541.249-.995.641-1.361.393-.366.868-.55 1.427-.55.477 0 .891.146 1.249.422l3.456-2.948c.081-1.421.492-2.571 1.275-3.416.872-.942 2.077-1.414 3.612-1.414.248 0 .479.029.713.053l2.284-1.948a1.696 1.696 0 01-.313-.669l-29.95 1.973C.871 13.973.485 16.455.268 18.965a71.502 71.502 0 00-.266 5.476l6.89 7.07zM18.067 42.98a1.697 1.697 0 011.575-.268l4.526-11.385a2.012 2.012 0 01-.266-1.014v-7.198h-.576c-.454 0-.842-.161-1.165-.484a1.587 1.587 0 01-.484-1.165c0-.454.161-.842.484-1.165a1.587 1.587 0 011.165-.484h.576v-2.356c0-.03.006-.055.006-.084l-3.206 2.734c.397.401.597.887.597 1.46v8.743c0 .576-.201 1.065-.602 1.466-.402.401-.89.602-1.466.602a2.014 2.014 0 01-1.427-.55 1.968 1.968 0 01-.641-1.361c-.384.541-.938.995-1.662 1.361-.724.367-1.523.55-2.395.55-1.71 0-3.154-.619-4.332-1.859-.043-.045-.071-.097-.112-.143l-1.569 1.338L18.067 42.98zM31.47 9.296c-.001-.028-.004-.056-.004-.085 0-.12.013-.237.036-.349L9.557.948a11.04 11.04 0 00-3.319 2.123C4.309 4.858 3.09 7.095 2.198 9.532c-.209.571-.379 1.15-.549 1.729L31.47 9.296zM9.716.88l.182-.071a9.823 9.823 0 00-.182.071zm21.869 7.707l.003-.008L15.697.033 15.7.028a16.07 16.07 0 00-3.399.154c-.816.128-1.596.331-2.342.606l21.626 7.799zM18.312 45.842a1.712 1.712 0 01-.904-1.339l-12.815 1.39c.677.926 1.45 1.774 2.375 2.497.463.362.946.667 1.441.94.715.395 1.461.713 2.254.944.671.195 1.373.336 2.109.43.736.094 1.506.141 2.315.148.291-.026.716-.053 1.191-.094l2.034-4.916z"/><path d="M49.517 24.211a12.046 12.046 0 00-.695-2.883 15.063 15.063 0 00-1.32-2.659c-1.546-2.499-3.587-4.551-5.826-6.42a46.333 46.333 0 00-1.987-1.561c-.299-.224-.604-.437-.907-.654-.264-.189-.523-.385-.79-.569l-.017.002a71.858 71.858 0 00-5.463-3.407C28.788 3.955 24.959 2.083 20.818.933 19.354.527 17.88.219 16.391.081l15.326 8.242a1.708 1.708 0 11.908 2.504l-.833 2.096c.223.136.442.28.644.452.453.402.681.873.681 1.414 0 .489-.162.899-.484 1.23-.323.332-.729.497-1.217.497-.32 0-.633-.105-.942-.276l-1.421 3.574h.87c.453 0 .842.162 1.165.484.323.323.484.711.484 1.165 0 .454-.162.842-.484 1.165a1.587 1.587 0 01-1.165.484h-1.885v7.198c0 .576-.201 1.065-.602 1.466-.402.401-.89.602-1.466.602a1.996 1.996 0 01-1.466-.602c-.053-.053-.094-.112-.14-.169l-4.458 11.214a1.708 1.708 0 01-1.331 3.131l-1.974 4.775c.286-.028.58-.059.878-.103 2.372-.346 4.655-1.03 6.883-1.903 4.482-1.757 8.666-4.08 12.68-6.716 2.9-1.904 5.631-4.021 7.982-6.592 1.506-1.647 2.787-3.445 3.641-5.523.562-1.368.883-2.775.916-4.222a10.68 10.68 0 00-.064-1.457zm-8.861-1.582a1.587 1.587 0 01-1.165.484H38.13v7.198c0 .576-.201 1.065-.602 1.466-.402.401-.89.602-1.466.602a1.996 1.996 0 01-1.466-.602 1.992 1.992 0 01-.602-1.466v-7.198h-.576c-.454 0-.842-.161-1.165-.484a1.587 1.587 0 01-.484-1.165c0-.454.161-.842.484-1.165a1.587 1.587 0 011.165-.484h.576v-1.701c0-.576.2-1.064.602-1.466.401-.401.89-.602 1.466-.602s1.064.201 1.466.602c.401.402.602.89.602 1.466v1.701h1.361c.454 0 .842.162 1.165.484.323.323.484.711.484 1.165 0 .454-.161.842-.484 1.165z"/><path d="M17.405 44.215a1.7 1.7 0 01.45-1.043L6.873 31.903.99 36.921c.421 2.076 1.014 4.095 1.899 6.017l-.006.032c.154.334.316.666.49.994.309.582.658 1.13 1.029 1.662l13.003-1.411zM6.673 31.697L0 24.85c-.004 1.885.091 3.772.174 5.656.091 2.05.358 4.081.75 6.095l5.749-4.904zm22.621-15.861c-.838 0-1.257.576-1.257 1.728v2.251h.706l1.471-3.701a1.67 1.67 0 00-.92-.278zm2.719-5.375l-2.084 1.777a5.261 5.261 0 011.611.541l.821-2.066a1.661 1.661 0 01-.348-.252zM12.084 27.982c.558.559 1.239.838 2.042.838.802 0 1.483-.279 2.042-.838.558-.558.838-1.239.838-2.042 0-.782-.27-1.446-.8-1.996l-4.375 3.732c.079.104.156.209.253.306zm2.042-4.921c-.803 0-1.484.279-2.042.838-.559.559-.838 1.239-.838 2.042 0 .561.145 1.059.418 1.501l4.326-3.69a2.763 2.763 0 00-1.864-.691z"/></g></svg>