<svg xmlns="http://www.w3.org/2000/svg" viewBox="0 0 121 51"><path d="M15.093 50.855c-3.236-.028-5.855-.693-8.12-2.462-1.537-1.2-2.688-2.715-3.596-4.427C2.17 41.692 1.45 39.253.954 36.741a41.652 41.652 0 01-.775-6.233C.092 28.55-.012 26.589.001 24.63a71.38 71.38 0 01.271-5.663c.279-3.215.815-6.386 1.931-9.433.892-2.437 2.11-4.674 4.04-6.461C7.962 1.481 9.997.546 12.306.185c2.902-.454 5.727-.024 8.517.751 4.142 1.15 7.971 3.022 11.694 5.127 3.218 1.819 6.32 3.816 9.163 6.189 2.239 1.868 4.28 3.921 5.826 6.42 1.056 1.707 1.793 3.537 2.016 5.542.218 1.963-.103 3.856-.852 5.681-.854 2.079-2.135 3.877-3.64 5.523-2.351 2.571-5.082 4.688-7.982 6.592-4.015 2.636-8.199 4.959-12.68 6.716-2.228.874-4.511 1.558-6.883 1.903-.928.135-1.869.179-2.392.226z" fill="#ff246c"/><path d="M47.506 18.672c-1.546-2.499-3.587-4.551-5.826-6.42a50.427 50.427 0 00-3.683-2.784C20.016 11.375 5.607 25.247 2.888 42.973c.154.334.316.666.49.994.908 1.711 2.059 3.227 3.596 4.427 2.265 1.769 4.884 2.434 8.12 2.462.523-.048 1.464-.091 2.391-.226 2.372-.346 4.655-1.03 6.883-1.903 4.482-1.757 8.666-4.08 12.68-6.716 2.9-1.904 5.631-4.021 7.982-6.592 1.506-1.647 2.787-3.445 3.64-5.523.749-1.824 1.07-3.718.852-5.681-.223-2.005-.959-3.836-2.016-5.543z" fill="#ba0445"/><path d="M59.723 15.146h2.671c1.968 0 3.51.512 4.627 1.535 1.116 1.023 1.675 2.316 1.675 3.877 0 1.562-.559 2.855-1.675 3.877-1.117 1.023-2.659 1.534-4.627 1.534h-.633v3.819c0 .562-.199 1.043-.597 1.441a1.966 1.966 0 01-1.441.598 1.962 1.962 0 01-1.441-.598 1.963 1.963 0 01-.597-1.441V17.184c0-.562.199-1.043.597-1.441s.878-.597 1.441-.597zm2.038 3.537v3.748h.656c1.468 0 2.202-.625 2.202-1.874s-.734-1.874-2.202-1.874h-.656zm11.605 3.327c.328-.5.753-.91 1.277-1.23a3.154 3.154 0 011.675-.48c.547 0 .984.16 1.312.48.328.32.492.715.492 1.183 0 .453-.164.843-.492 1.171a1.6 1.6 0 01-1.171.492c-.125 0-.281-.024-.469-.07a1.865 1.865 0 00-.492-.07c-.672 0-1.195.227-1.57.679-.375.453-.562 1.086-.562 1.898v3.912c0 .515-.18.953-.539 1.312a1.787 1.787 0 01-1.312.539c-.515 0-.953-.18-1.312-.539a1.787 1.787 0 01-.539-1.312V22.15c0-.515.179-.953.539-1.312.36-.358.797-.538 1.312-.538.5 0 .925.164 1.277.492.352.328.543.734.574 1.218zm14.144-.023c1.187 1.109 1.78 2.468 1.78 4.077s-.59 2.972-1.769 4.088c-1.179 1.117-2.62 1.675-4.322 1.675s-3.143-.558-4.322-1.675c-1.18-1.116-1.769-2.479-1.769-4.088s.589-2.971 1.769-4.088c1.179-1.117 2.62-1.675 4.322-1.675 1.703-.001 3.14.561 4.311 1.686zm-2.647 5.786c.484-.453.726-1.023.726-1.71s-.242-1.257-.726-1.71c-.484-.453-1.039-.679-1.663-.679-.625 0-1.179.226-1.663.679-.484.453-.726 1.023-.726 1.71s.242 1.257.726 1.71c.484.453 1.038.679 1.663.679.624.001 1.178-.225 1.663-.679zm19.477 2.203V25.22c0-.5-.156-.914-.469-1.242a1.552 1.552 0 00-1.171-.492c-.469 0-.859.164-1.171.492-.313.328-.469.742-.469 1.242v4.756c0 .515-.18.953-.539 1.312a1.787 1.787 0 01-1.312.539c-.515 0-.953-.18-1.312-.539a1.787 1.787 0 01-.539-1.312V25.22c0-.5-.156-.914-.469-1.242a1.552 1.552 0 00-1.171-.492c-.469 0-.859.164-1.171.492-.313.328-.469.742-.469 1.242v4.756c0 .515-.18.953-.539 1.312a1.787 1.787 0 01-1.312.539c-.515 0-.953-.18-1.312-.539a1.787 1.787 0 01-.539-1.312v-7.825c0-.515.179-.953.539-1.312a1.787 1.787 0 011.312-.539c.5 0 .925.168 1.277.504.352.336.543.738.574 1.206.343-.5.804-.91 1.382-1.23a3.675 3.675 0 011.804-.48c1.374 0 2.437.578 3.186 1.734.984-1.156 2.233-1.734 3.748-1.734 1.125 0 2.046.367 2.765 1.101.718.734 1.078 1.718 1.078 2.952v5.623c0 .515-.18.953-.539 1.312a1.787 1.787 0 01-1.312.539c-.515 0-.953-.18-1.312-.539a1.786 1.786 0 01-.538-1.312zm14.494-8.006c1.187 1.109 1.78 2.468 1.78 4.077s-.59 2.972-1.769 4.088c-1.179 1.117-2.62 1.675-4.322 1.675s-3.143-.558-4.322-1.675c-1.18-1.116-1.769-2.479-1.769-4.088s.589-2.971 1.769-4.088c1.179-1.117 2.62-1.675 4.322-1.675s3.139.561 4.311 1.686zm-2.648 5.786c.484-.453.726-1.023.726-1.71s-.242-1.257-.726-1.71c-.484-.453-1.039-.679-1.663-.679-.625 0-1.179.226-1.663.679-.484.453-.726 1.023-.726 1.71s.242 1.257.726 1.71c.484.453 1.038.679 1.663.679.625.001 1.179-.225 1.663-.679zM60.339 38.861c-.362 0-.704-.063-1.025-.188a2.4 2.4 0 01-.845-.556c-.242-.245-.434-.55-.574-.915s-.21-.787-.21-1.266c0-.473.073-.895.219-1.266a2.87 2.87 0 01.587-.942c.245-.257.531-.452.859-.587a2.698 2.698 0 011.034-.201c.368 0 .698.074.99.223.292.149.534.323.727.521l-.683.823a2.203 2.203 0 00-.46-.329 1.154 1.154 0 00-.548-.127c-.193 0-.375.042-.547.127a1.31 1.31 0 00-.447.364 1.802 1.802 0 00-.298.578c-.073.228-.11.485-.11.771 0 .59.125 1.047.377 1.371a1.21 1.21 0 001.007.486c.234 0 .442-.051.626-.153.184-.102.346-.229.486-.381l.683.806c-.479.56-1.095.841-1.848.841zm2.61-.105v-4.345H64l.088.762h.035c.158-.298.347-.517.569-.657.222-.14.444-.21.666-.21.123 0 .223.007.302.022.079.015.15.037.215.066l-.21 1.112a1.585 1.585 0 00-.473-.07.935.935 0 00-.512.175c-.178.117-.326.324-.442.622v2.523h-1.289zm5.343.105c-.31 0-.599-.051-.867-.153a1.993 1.993 0 01-1.165-1.161 2.604 2.604 0 01-.166-.964c0-.351.058-.667.175-.95.117-.283.27-.523.46-.718a1.987 1.987 0 011.415-.608c.31 0 .58.052.81.157.231.105.423.251.578.438.155.187.27.408.346.661.076.254.114.53.114.828a2.936 2.936 0 01-.053.57h-2.602c.058.315.188.547.39.696.201.149.448.223.74.223.309 0 .622-.096.937-.289l.429.78a2.87 2.87 0 01-.74.359 2.611 2.611 0 01-.801.131zm-.963-2.751h1.568c0-.245-.056-.444-.166-.596-.111-.152-.298-.228-.561-.228a.8.8 0 00-.539.201c-.155.136-.255.343-.302.623zm4.555 2.751c-.199 0-.378-.034-.539-.101a1.156 1.156 0 01-.407-.28 1.279 1.279 0 01-.258-.416 1.422 1.422 0 01-.092-.517c0-.456.193-.812.578-1.069s1.007-.429 1.866-.517a.736.736 0 00-.171-.46c-.102-.114-.273-.171-.512-.171-.187 0-.372.035-.556.105-.184.07-.381.166-.591.289l-.464-.85c.28-.169.574-.307.88-.412.307-.105.632-.157.977-.157.561 0 .988.159 1.283.477.295.319.442.813.442 1.485v2.488h-1.051l-.088-.447h-.035a2.847 2.847 0 01-.587.399c-.205.102-.43.154-.675.154zm.438-.999a.705.705 0 00.376-.096c.105-.064.216-.155.333-.272v-.762c-.456.064-.771.158-.946.28-.175.123-.263.269-.263.438 0 .14.045.244.136.311a.593.593 0 00.364.101zm4.599.999c-.269 0-.498-.041-.688-.123s-.345-.195-.464-.342c-.12-.146-.207-.323-.263-.53s-.083-.437-.083-.688v-1.761h-.596v-.955l.666-.052.149-1.156h1.069v1.156h1.042v1.007h-1.042v1.743c0 .245.051.422.153.53a.534.534 0 00.407.162.95.95 0 00.215-.026c.073-.018.138-.038.197-.061l.202.937c-.117.035-.254.07-.412.105a2.505 2.505 0 01-.552.054zm2.321-5.09a.772.772 0 01-.534-.188.623.623 0 01-.21-.486c0-.198.07-.359.21-.482a.78.78 0 01.534-.184c.222 0 .402.061.539.184a.617.617 0 01.206.482.628.628 0 01-.206.486.77.77 0 01-.539.188zm-.639 4.985v-4.345h1.288v4.345h-1.288zm3.416 0l-1.463-4.345h1.297l.561 2.05c.058.216.115.437.171.661l.171.679h.035a37.08 37.08 0 01.333-1.34l.569-2.05h1.235l-1.419 4.345h-1.49zm5.457.105c-.31 0-.599-.051-.867-.153a1.993 1.993 0 01-1.165-1.161 2.604 2.604 0 01-.166-.964c0-.351.058-.667.175-.95.117-.283.27-.523.46-.718.19-.196.408-.346.653-.451.245-.105.499-.157.762-.157.309 0 .579.052.81.157.231.105.423.251.578.438.155.187.27.408.346.661.076.254.114.53.114.828a2.936 2.936 0 01-.053.57h-2.602c.058.315.188.547.39.696.201.149.448.223.74.223.309 0 .622-.096.937-.289l.429.78a2.87 2.87 0 01-.74.359 2.611 2.611 0 01-.801.131zm-.963-2.751h1.568c0-.245-.056-.444-.166-.596-.111-.152-.298-.228-.561-.228a.798.798 0 00-.539.201c-.155.136-.256.343-.302.623zm5.107 2.751c-.309 0-.583-.044-.819-.131a1.772 1.772 0 01-.596-.355 1.471 1.471 0 01-.364-.517 1.6 1.6 0 01-.123-.626c0-.198.028-.378.083-.539.056-.16.132-.305.228-.433s.207-.245.333-.351a3.59 3.59 0 01.399-.289 3.228 3.228 0 01-.258-.609 1.982 1.982 0 01-.092-.574c0-.204.037-.397.11-.578a1.437 1.437 0 01.797-.801c.19-.079.404-.118.644-.118.432 0 .774.117 1.025.35.251.234.377.549.377.946 0 .187-.034.358-.101.513a1.67 1.67 0 01-.271.429 2.674 2.674 0 01-.386.364 8.785 8.785 0 01-.433.315 6.933 6.933 0 001.148 1.042c.146-.187.274-.394.385-.622.111-.228.201-.476.272-.745h1.174c-.105.35-.235.685-.39 1.003a5.796 5.796 0 01-.565.924c.181.093.355.171.521.232.166.061.322.104.469.127l-.307 1.042a3.905 3.905 0 01-.727-.219 6.144 6.144 0 01-.736-.359 3.01 3.01 0 01-.81.425 3.019 3.019 0 01-.987.154zm.166-.981c.239 0 .479-.076.718-.228-.222-.181-.432-.371-.631-.569s-.383-.403-.552-.613c-.117.1-.21.205-.28.315a.677.677 0 00-.105.368c0 .216.077.391.232.526.155.133.361.201.618.201zm-.315-3.452c0 .105.016.216.048.333.032.117.077.234.136.351.204-.123.377-.251.517-.385a.654.654 0 00.21-.491.512.512 0 00-.096-.324c-.064-.082-.164-.123-.298-.123a.469.469 0 00-.368.171c-.1.113-.149.27-.149.468zm4.546 4.328v-5.711h1.612c.438 0 .832.056 1.183.166.35.111.651.282.902.513.251.231.444.524.578.88.134.356.201.78.201 1.27s-.067.917-.201 1.279a2.372 2.372 0 01-.569.898 2.337 2.337 0 01-.88.53 3.516 3.516 0 01-1.143.175h-1.683zm1.288-1.043h.245c.245 0 .467-.032.666-.096a1.23 1.23 0 00.508-.311c.14-.143.25-.331.329-.565.079-.233.118-.523.118-.867 0-.339-.039-.623-.118-.854a1.38 1.38 0 00-.329-.552 1.207 1.207 0 00-.508-.294 2.37 2.37 0 00-.666-.088h-.245v3.627zm4.809-3.942a.772.772 0 01-.534-.188.623.623 0 01-.21-.486c0-.198.07-.359.21-.482a.78.78 0 01.534-.184c.222 0 .402.061.539.184a.617.617 0 01.206.482.628.628 0 01-.206.486.771.771 0 01-.539.188zm-.64 4.985v-4.345h1.288v4.345h-1.288zm3.968 1.848c-.257 0-.495-.022-.714-.066a2.157 2.157 0 01-.578-.197 1.043 1.043 0 01-.39-.342.875.875 0 01-.14-.499c0-.35.207-.642.622-.876v-.035a.971.971 0 01-.289-.289.806.806 0 01-.114-.447c0-.158.047-.308.14-.451.093-.143.21-.264.35-.364v-.035a1.451 1.451 0 01-.407-.451 1.27 1.27 0 01-.18-.679c0-.263.05-.492.149-.688.099-.195.232-.359.399-.49.166-.132.358-.229.574-.294.216-.064.441-.096.674-.096.257 0 .482.035.675.105h1.586v.937h-.692a.86.86 0 01.101.245c.026.099.039.207.039.324 0 .251-.044.469-.131.652a1.247 1.247 0 01-.364.456c-.155.12-.336.209-.543.267a2.478 2.478 0 01-.67.088c-.169 0-.345-.029-.526-.088a.466.466 0 00-.123.14.419.419 0 00-.035.184.26.26 0 00.144.245c.096.052.267.079.513.079h.701c.537 0 .947.086 1.231.258.283.172.425.454.425.845 0 .228-.057.437-.171.627-.114.19-.276.353-.486.49-.21.137-.464.245-.762.324a3.847 3.847 0 01-1.008.121zm.202-.806c.292 0 .532-.051.718-.153.187-.102.28-.229.28-.381 0-.134-.057-.225-.171-.271-.114-.047-.279-.07-.495-.07h-.447c-.152 0-.275-.004-.368-.013a1.752 1.752 0 01-.245-.039c-.158.14-.236.283-.236.429 0 .163.088.288.263.372.175.083.409.126.701.126zm-.105-3.197c.169 0 .311-.06.425-.18.114-.12.171-.302.171-.547 0-.228-.057-.401-.171-.521a.563.563 0 00-.425-.18.57.57 0 00-.425.175c-.114.117-.171.292-.171.526 0 .245.057.428.171.547.114.12.255.18.425.18zm3.67-2.83a.772.772 0 01-.534-.188.623.623 0 01-.21-.486c0-.198.07-.359.21-.482a.78.78 0 01.534-.184c.222 0 .402.061.539.184a.617.617 0 01.206.482.628.628 0 01-.206.486.77.77 0 01-.539.188zm-.639 4.985v-4.345h1.288v4.345h-1.288zm4.09.105c-.269 0-.498-.041-.688-.123s-.345-.195-.464-.342c-.12-.146-.207-.323-.263-.53s-.083-.437-.083-.688v-1.761h-.596v-.955l.666-.052.149-1.156h1.069v1.156h1.042v1.007h-1.042v1.743c0 .245.051.422.153.53a.534.534 0 00.407.162.95.95 0 00.215-.026c.073-.018.138-.038.197-.061l.202.937c-.117.035-.254.07-.412.105a2.498 2.498 0 01-.552.054zm2.602 0c-.199 0-.378-.034-.539-.101a1.156 1.156 0 01-.407-.28 1.279 1.279 0 01-.258-.416 1.422 1.422 0 01-.092-.517c0-.456.193-.812.578-1.069s1.007-.429 1.866-.517a.736.736 0 00-.171-.46c-.102-.114-.273-.171-.512-.171-.187 0-.372.035-.556.105-.184.07-.381.166-.591.289l-.464-.85c.28-.169.574-.307.88-.412.307-.105.632-.157.977-.157.561 0 .988.159 1.283.477.295.319.442.813.442 1.485v2.488h-1.051l-.088-.447h-.035a2.847 2.847 0 01-.587.399c-.205.102-.43.154-.675.154zm.438-.999a.708.708 0 00.376-.096c.105-.064.216-.155.333-.272v-.762c-.456.064-.771.158-.946.28-.175.123-.263.269-.263.438 0 .14.045.244.136.311a.593.593 0 00.364.101zm4.266.999c-.222 0-.409-.035-.561-.105a.906.906 0 01-.364-.294c-.091-.125-.156-.277-.197-.455s-.061-.378-.061-.6v-4.792h1.288v4.844c0 .134.025.228.075.28.05.053.101.079.153.079h.074c.02 0 .048-.006.083-.018l.157.955c-.07.029-.159.054-.267.075a2.004 2.004 0 01-.38.031z" fill="#222"/><path d="M33.178 7.507c-.617 0-1.157.329-1.457.82L16.389.08a19.477 19.477 0 00-.684-.051l-.004.007 15.891 8.546-.003.008L9.96.79c-.136.05-.272.103-.405.158l21.952 7.916a1.75 1.75 0 00-.036.349c0 .029.003.057.004.085L1.633 11.265c-.029.097-.055.195-.083.292l29.961-1.974c.055.248.164.475.313.669L6.896 31.514.004 24.442l-.003.189c0 .073.002.146.001.219l6.675 6.85-5.75 4.904.026.138.039.183 5.886-5.02 10.982 11.27a1.7 1.7 0 00-.45 1.043L4.391 45.631c.062.09.125.179.189.268l12.832-1.392c.058.583.409 1.078.903 1.339l-2.033 4.917.322-.029 1.974-4.776a1.708 1.708 0 001.331-3.131l12.72-31.997a1.708 1.708 0 10.549-3.323zM19.647 42.714a1.69 1.69 0 00-1.575.268L7.097 31.72l24.921-21.255c.105.098.221.183.348.252L19.647 42.714z" fill="#fff"/><path d="M21.303 21.572v8.743c0 .576-.201 1.065-.602 1.466-.402.401-.89.602-1.466.602a2.014 2.014 0 01-1.427-.55 1.968 1.968 0 01-.641-1.361c-.384.541-.938.995-1.662 1.361a5.235 5.235 0 01-2.395.55c-1.71 0-3.154-.619-4.332-1.858s-1.767-2.766-1.767-4.581c0-1.815.589-3.342 1.767-4.581 1.178-1.239 2.622-1.858 4.332-1.858.872 0 1.671.183 2.395.55.724.366 1.278.82 1.662 1.361.035-.541.249-.995.641-1.361.393-.366.868-.55 1.427-.55.576 0 1.064.201 1.466.602.401.401.602.889.602 1.465zm-5.131 6.413c.558-.558.838-1.239.838-2.042 0-.802-.279-1.483-.838-2.042a2.781 2.781 0 00-2.042-.838c-.803 0-1.484.279-2.042.838-.559.559-.838 1.239-.838 2.042 0 .803.279 1.483.838 2.042.558.559 1.239.838 2.042.838.803 0 1.484-.279 2.042-.838zm7.734-8.167v-2.356c0-1.658.436-2.958 1.309-3.9.872-.942 2.077-1.413 3.612-1.413 1.448 0 2.652.41 3.612 1.23.453.402.681.873.681 1.413 0 .489-.162.899-.484 1.23-.323.332-.729.497-1.217.497-.384 0-.759-.122-1.126-.366a1.688 1.688 0 00-.995-.314c-.838 0-1.257.576-1.257 1.728v2.251h1.885c.453 0 .842.162 1.165.484.323.323.484.711.484 1.165 0 .454-.162.842-.484 1.165a1.587 1.587 0 01-1.165.484h-1.885v7.198c0 .576-.201 1.065-.602 1.466-.402.401-.89.602-1.466.602a1.996 1.996 0 01-1.466-.602 1.992 1.992 0 01-.602-1.466v-7.198h-.575c-.454 0-.842-.161-1.165-.484a1.587 1.587 0 01-.484-1.165c0-.454.161-.842.484-1.165a1.587 1.587 0 011.165-.484h.576zm10.093 10.497v-7.198h-.576c-.454 0-.842-.161-1.165-.484a1.587 1.587 0 01-.484-1.165c0-.454.161-.842.484-1.165a1.587 1.587 0 011.165-.484h.576v-1.701c0-.576.2-1.064.602-1.466.401-.401.89-.602 1.466-.602s1.064.201 1.466.602c.401.402.602.89.602 1.466v1.701h1.361c.454 0 .842.162 1.165.484.323.323.484.711.484 1.165 0 .454-.162.842-.484 1.165a1.587 1.587 0 01-1.165.484h-1.361v7.198c0 .576-.201 1.065-.602 1.466-.402.401-.89.602-1.466.602a1.996 1.996 0 01-1.466-.602 1.998 1.998 0 01-.602-1.466z" fill="#fff"/></svg>